<svg width="368" height="443" viewBox="0 0 368 443" fill="none" xmlns="http://www.w3.org/2000/svg">
<rect x="54" y="388" width="39" height="5" rx="2.5" fill="#FF7E47"/>
<circle cx="20" cy="358" r="20" fill="#B1BBFF"/>
<circle cx="348" cy="224" r="20" fill="#8A98FF"/>
<circle cx="292" cy="224" r="20" fill="#B1BBFF"/>
<circle cx="238" cy="224" r="20" fill="#263FE9"/>
<circle cx="20" cy="224" r="20" fill="#B1BBFF"/>
<circle cx="74" cy="224" r="20" fill="#B1BBFF"/>
<circle cx="128" cy="224" r="20" fill="#687BFF"/>
<circle cx="183" cy="224" r="20" fill="#687BFF"/>
<path d="M14.518 20H25.098V18.206H17.324V18.068L21.05 14.25C23.948 11.26 24.776 9.857 24.822 8.04C24.776 5.487 22.683 3.509 19.716 3.532C16.795 3.509 14.564 5.441 14.61 8.316H16.496C16.519 6.499 17.738 5.28 19.67 5.28C21.487 5.28 22.89 6.361 22.89 8.04C22.89 9.535 21.97 10.639 20.038 12.686L14.518 18.528V20ZM33.3755 20.23C36.9635 20.23 39.0565 17.194 39.0335 11.858C39.0565 6.591 36.9405 3.509 33.3755 3.532C29.7875 3.509 27.6715 6.591 27.6715 11.858C27.6715 17.194 29.7645 20.23 33.3755 20.23ZM29.6495 11.858C29.6495 7.649 31.0295 5.28 33.3755 5.28C35.6985 5.28 37.0785 7.649 37.1015 11.858C37.0785 16.067 35.7215 18.436 33.3755 18.436C31.0065 18.436 29.6495 16.067 29.6495 11.858ZM41.7407 20H52.3207V18.206H44.5467V18.068L48.2727 14.25C51.1707 11.26 51.9987 9.857 52.0447 8.04C51.9987 5.487 49.9057 3.509 46.9387 3.532C44.0177 3.509 41.7867 5.441 41.8327 8.316H43.7187C43.7417 6.499 44.9607 5.28 46.8927 5.28C48.7097 5.28 50.1127 6.361 50.1127 8.04C50.1127 9.535 49.1927 10.639 47.2607 12.686L41.7407 18.528V20ZM55.2621 20H65.8421V18.206H58.0681V18.068L61.7941 14.25C64.6921 11.26 65.5201 9.857 65.5661 8.04C65.5201 5.487 63.4271 3.509 60.4601 3.532C57.5391 3.509 55.3081 5.441 55.3541 8.316H57.2401C57.2631 6.499 58.4821 5.28 60.4141 5.28C62.2311 5.28 63.6341 6.361 63.6341 8.04C63.6341 9.535 62.7141 10.639 60.7821 12.686L55.2621 18.528V20ZM70.2096 20.138C70.9916 20.138 71.6356 19.471 71.6356 18.666C71.6356 17.884 70.9916 17.24 70.2096 17.24C69.4046 17.24 68.7376 17.884 68.7376 18.666C68.7376 19.471 69.4046 20.138 70.2096 20.138ZM78.4418 3.716H76.4178L72.3698 6.43V8.454L76.3258 5.832H76.4178V20H78.4418V3.716ZM88.1128 20.23C91.7008 20.23 93.7938 17.194 93.7708 11.858C93.7938 6.591 91.6778 3.509 88.1128 3.532C84.5248 3.509 82.4088 6.591 82.4088 11.858C82.4088 17.194 84.5018 20.23 88.1128 20.23ZM84.3868 11.858C84.3868 7.649 85.7668 5.28 88.1128 5.28C90.4358 5.28 91.8158 7.649 91.8388 11.858C91.8158 16.067 90.4588 18.436 88.1128 18.436C85.7438 18.436 84.3868 16.067 84.3868 11.858Z" fill="#3F3F3F"/>
<path fill-rule="evenodd" clip-rule="evenodd" d="M104.293 8.29274C104.683 7.90222 105.317 7.90222 105.707 8.29274L111 13.5856L116.293 8.29274C116.683 7.90222 117.317 7.90222 117.707 8.29274C118.098 8.68327 118.098 9.31643 117.707 9.70695L111 16.4141L104.293 9.70696C103.902 9.31643 103.902 8.68327 104.293 8.29274Z" fill="#4E4E4E"/>
<path d="M17.6895 46.918C16.1133 46.9238 14.9766 47.873 14.9824 49.2266C14.9766 50.5859 16.1133 51.5234 17.6895 51.5234C19.248 51.5234 20.3789 50.5859 20.3848 49.2266C20.3789 47.873 19.248 46.9238 17.6895 46.918ZM15.8848 49.2266C15.873 48.3242 16.6406 47.6855 17.6895 47.6914C18.7207 47.6855 19.4941 48.3242 19.4941 49.2266C19.4941 50.1406 18.7207 50.7734 17.6895 50.7734C16.6406 50.7734 15.873 50.1406 15.8848 49.2266ZM16.5645 53.1289H22.4238V54.207H16.5879V56.8086H23.7129V56.0703H17.4902V54.8984H23.3379V52.3906H16.5645V53.1289ZM22.4238 51.8867H23.3379V46.5312H22.4238V51.8867Z" fill="#CFCFCF"/>
<path d="M77.9892 46.5442H77.0611V51.5H74.9561V52.105H77.0611V52.6851H77.9892V46.5442ZM69.3622 50.4724L69.4782 51.1602C70.3235 51.1644 71.2682 51.1602 72.2544 51.1271V52.7182H73.1578V51.0939C74.1937 51.0401 75.2544 50.953 76.2738 50.8122L76.2158 50.2072C73.9616 50.4558 71.3843 50.4807 69.3622 50.4724ZM70.1743 48.3094C70.1743 49.2873 71.1937 49.8674 72.7683 49.8674C74.318 49.8674 75.3456 49.2873 75.3539 48.3094C75.3456 47.3481 74.318 46.7431 72.7683 46.7431C71.1937 46.7431 70.1743 47.3481 70.1743 48.3094ZM70.9616 53.721H77.0776V54.5746H71.0031V56.837H78.3373V56.1492H71.9064V55.2127H77.9892V53.058H70.9616V53.721ZM71.0445 48.3094C71.0362 47.7541 71.7158 47.3812 72.7683 47.3812C73.8042 47.3812 74.4837 47.7541 74.4837 48.3094C74.4837 48.8646 73.8042 49.2376 72.7683 49.2376C71.7158 49.2376 71.0362 48.8646 71.0445 48.3094Z" fill="#263FE9"/>
<path d="M132.151 46.5359H131.231V56.953H132.151V51.7486H133.816V50.9696H132.151V46.5359ZM123.938 54.1768L124.095 54.9558C125.919 54.9558 128.38 54.9309 130.659 54.5414L130.593 53.8453C129.685 53.9779 128.703 54.0566 127.734 54.1022V52.9917C128.944 52.8508 129.747 52.1381 129.756 51.1022C129.747 49.9254 128.736 49.163 127.278 49.163C125.803 49.163 124.808 49.9254 124.816 51.1022C124.808 52.1381 125.6 52.8467 126.814 52.9917V54.1395C125.782 54.1685 124.787 54.1727 123.938 54.1768ZM124.129 48.558H130.41V47.8122H127.734V46.5525H126.814V47.8122H124.129V48.558ZM125.678 51.1022C125.678 50.3729 126.316 49.884 127.278 49.884C128.231 49.884 128.869 50.3729 128.869 51.1022C128.869 51.8232 128.231 52.2956 127.278 52.2873C126.316 52.2956 125.678 51.8232 125.678 51.1022Z" fill="#CFCFCF"/>
<path d="M183.963 47.5039V46.9062H183.014V47.5039C183.014 48.998 181.109 50.2402 179.229 50.5039L179.604 51.2539C181.227 50.9844 182.826 50.0996 183.494 48.8105C184.162 50.0879 185.768 50.9844 187.385 51.2539L187.76 50.5039C185.879 50.2402 183.969 48.9746 183.963 47.5039ZM178.736 53.1758H183.014V56.9492H183.916V53.1758H188.229V52.4023H178.736V53.1758Z" fill="#CFCFCF"/>
<path d="M241.688 46.9766H234.633V50.4922H237.692V51.8281H233.403V52.5781H242.895V51.8281H238.606V50.4922H241.688V46.9766ZM234.458 54.4062H240.797V56.9492H241.723V53.668H234.458V54.4062ZM235.536 49.7539V47.7148H240.774V49.7539H235.536Z" fill="#CFCFCF"/>
<path d="M296.355 47.0938H289.277V47.8555H295.441V47.8672C295.447 48.6758 295.447 49.6133 295.154 50.9258H288.07V51.6875H297.609V50.9258H296.08C296.355 49.625 296.355 48.6758 296.355 47.8672V47.0938ZM289.242 56.8086H296.402V53.1289H289.242V56.8086ZM290.156 56.0586V53.8555H295.488V56.0586H290.156Z" fill="#CFCFCF"/>
<path d="M351.174 51.957H344.904V50.3867H350.834V49.6367H344.904V48.1484H351.057V47.3867H343.967V52.707H347.025V54.8867H342.736V55.6484H352.275V54.8867H347.939V52.707H351.174V51.957Z" fill="#CFCFCF"/>
<path d="M12.001 363H18.4268V361.906H13.71V361.824L15.9795 359.486C17.7295 357.682 18.2422 356.82 18.249 355.713C18.2422 354.175 16.9707 352.965 15.1729 352.965C13.3818 352.965 12.0283 354.141 12.042 355.891H13.2041C13.2109 354.783 13.9492 354.038 15.1318 354.031C16.2461 354.038 17.0938 354.694 17.1006 355.713C17.0938 356.629 16.5332 357.299 15.3643 358.543L11.9873 362.098L12.001 363ZM23.6357 363.137C25.6113 363.137 27.0879 361.934 27.0811 360.307C27.0879 359.049 26.3086 358.126 25.0166 357.928V357.859C26.0557 357.565 26.7119 356.745 26.6982 355.617C26.7119 354.202 25.5635 352.965 23.6768 352.965C21.9199 352.965 20.457 354.018 20.3955 355.59H21.585C21.6396 354.619 22.6035 354.038 23.6631 354.031C24.791 354.038 25.5156 354.694 25.5088 355.686C25.5156 356.704 24.6748 357.381 23.4717 357.381H22.665V358.461H23.4717C25.0098 358.468 25.8711 359.227 25.8779 360.307C25.8711 361.339 24.9277 362.043 23.6221 362.043C22.4395 362.043 21.5029 361.455 21.4346 360.512H20.1904C20.252 362.084 21.667 363.137 23.6357 363.137Z" fill="white"/>
<path d="M65.4981 363H72.8075V361.11H68.7322V361.047L69.9891 359.892C72.1259 358.03 72.6818 357.083 72.6866 355.947C72.6818 354.173 71.2267 352.964 68.9981 352.964C66.8178 352.964 65.3531 354.221 65.3627 356.222H67.572C67.572 355.323 68.1376 354.787 68.9884 354.787C69.8199 354.787 70.4242 355.299 70.429 356.121C70.4242 356.875 69.9456 357.378 69.1093 358.142L65.4933 361.318L65.4981 363ZM73.7983 361.337H78.6084V363H80.8369V361.337H82.0407V359.495H80.8369V353.099H77.8977L73.7983 359.51V361.337ZM76.1236 359.495V359.418L78.5648 355.584H78.6519V359.495H76.1236Z" fill="#263FE9"/>
<path d="M120.967 363H127.625V361.715H123.059V361.633L125.068 359.596C126.928 357.771 127.447 356.889 127.461 355.781C127.447 354.175 126.128 352.965 124.221 352.965C122.334 352.965 120.953 354.161 120.967 355.973H122.389C122.396 354.92 123.093 354.223 124.193 354.223C125.232 354.223 126.025 354.845 126.025 355.822C126.025 356.69 125.485 357.319 124.398 358.447L120.967 361.906V363ZM132.656 363.137C134.721 363.137 136.184 361.735 136.184 359.787C136.184 357.88 134.81 356.499 132.943 356.492C132.191 356.499 131.494 356.766 131.084 357.162H130.988L131.316 354.387H135.678V353.102H130.072L129.43 358.611H130.852C131.187 358.003 131.795 357.736 132.588 357.736C133.832 357.75 134.721 358.625 134.721 359.828C134.721 361.004 133.859 361.872 132.656 361.879C131.658 361.872 130.852 361.257 130.77 360.416H129.307C129.375 361.995 130.783 363.137 132.656 363.137Z" fill="black"/>
<path d="M175.351 363H182.009V361.715H177.442V361.633L179.452 359.596C181.312 357.771 181.831 356.889 181.845 355.781C181.831 354.175 180.512 352.965 178.604 352.965C176.718 352.965 175.337 354.161 175.351 355.973H176.772C176.779 354.92 177.477 354.223 178.577 354.223C179.616 354.223 180.409 354.845 180.409 355.822C180.409 356.69 179.869 357.319 178.782 358.447L175.351 361.906V363ZM187.259 363.137C189.385 363.15 190.8 361.681 190.8 359.76C190.8 357.866 189.378 356.513 187.614 356.506C186.541 356.513 185.611 357.005 185.071 357.846H184.962C184.962 355.61 185.851 354.284 187.382 354.277C188.38 354.284 189.016 354.865 189.214 355.672H190.704C190.472 354.1 189.207 352.965 187.382 352.965C185.01 352.965 183.52 354.934 183.513 358.379C183.513 362.036 185.427 363.123 187.259 363.137ZM185.14 359.801C185.153 358.7 186.076 357.729 187.286 357.736C188.476 357.729 189.337 358.652 189.337 359.787C189.337 360.942 188.441 361.872 187.245 361.879C186.028 361.872 185.146 360.901 185.14 359.801Z" fill="black"/>
<path d="M230.961 363H237.62V361.715H233.053V361.633L235.063 359.596C236.922 357.771 237.442 356.889 237.456 355.781C237.442 354.175 236.123 352.965 234.215 352.965C232.329 352.965 230.948 354.161 230.961 355.973H232.383C232.39 354.92 233.087 354.223 234.188 354.223C235.227 354.223 236.02 354.845 236.02 355.822C236.02 356.69 235.48 357.319 234.393 358.447L230.961 361.906V363ZM239.629 363H241.202L245.604 354.441V353.102H238.946V354.387H244.045V354.469L239.629 363Z" fill="black"/>
<path d="M285.218 363H291.876V361.715H287.31V361.633L289.32 359.596C291.179 357.771 291.699 356.889 291.712 355.781C291.699 354.175 290.379 352.965 288.472 352.965C286.585 352.965 285.205 354.161 285.218 355.973H286.64C286.647 354.92 287.344 354.223 288.445 354.223C289.484 354.223 290.277 354.845 290.277 355.822C290.277 356.69 289.737 357.319 288.65 358.447L285.218 361.906V363ZM297.003 363.137C299.123 363.137 300.633 361.975 300.64 360.361C300.633 359.09 299.717 358.051 298.562 357.873V357.818C299.56 357.586 300.25 356.684 300.257 355.604C300.25 354.079 298.87 352.965 297.003 352.965C295.11 352.965 293.736 354.079 293.736 355.604C293.736 356.684 294.413 357.586 295.431 357.818V357.873C294.262 358.051 293.353 359.09 293.367 360.361C293.353 361.975 294.85 363.137 297.003 363.137ZM294.898 360.252C294.877 359.233 295.773 358.488 297.003 358.488C298.22 358.488 299.109 359.233 299.109 360.252C299.109 361.223 298.289 361.893 297.003 361.893C295.698 361.893 294.877 361.223 294.898 360.252ZM295.199 355.74C295.206 354.817 295.917 354.188 297.003 354.195C298.063 354.188 298.788 354.817 298.781 355.74C298.788 356.67 298.036 357.306 297.003 357.299C295.944 357.306 295.206 356.663 295.199 355.74Z" fill="black"/>
<path d="M339.351 363H346.009V361.715H341.442V361.633L343.452 359.596C345.312 357.771 345.831 356.889 345.845 355.781C345.831 354.175 344.512 352.965 342.604 352.965C340.718 352.965 339.337 354.161 339.351 355.973H340.772C340.779 354.92 341.477 354.223 342.577 354.223C343.616 354.223 344.409 354.845 344.409 355.822C344.409 356.69 343.869 357.319 342.782 358.447L339.351 361.906V363ZM351.081 352.965C348.928 352.951 347.526 354.428 347.526 356.314C347.526 358.208 348.948 359.568 350.726 359.568C351.792 359.568 352.722 359.062 353.255 358.229H353.378C353.364 360.491 352.469 361.817 350.944 361.824C349.946 361.817 349.304 361.236 349.099 360.402H347.608C347.848 362.009 349.119 363.137 350.944 363.137C353.316 363.137 354.813 361.168 354.813 357.695C354.807 354.072 352.899 352.979 351.081 352.965ZM348.989 356.287C348.982 355.152 349.885 354.223 351.081 354.223C352.291 354.223 353.173 355.2 353.173 356.273C353.173 357.367 352.25 358.345 351.054 358.338C349.851 358.345 348.996 357.436 348.989 356.287Z" fill="black"/>
<path d="M19.4316 218.965C17.3262 218.944 15.9727 220.441 15.9727 222.287C15.9727 224.194 17.4424 225.555 19.2129 225.555C20.2656 225.555 21.1748 225.062 21.7422 224.242H21.8789C21.8652 226.648 20.8809 228.043 19.2676 228.043C18.167 228.043 17.4902 227.387 17.2715 226.498H16.0547C16.3008 228.07 17.5244 229.137 19.2676 229.137C21.585 229.137 23.0273 227.175 23.0273 223.654C23.0273 220.011 21.1338 218.985 19.4316 218.965ZM17.1758 222.273C17.1621 221.05 18.1396 220.045 19.4316 220.045C20.7373 220.045 21.6875 221.111 21.6875 222.246C21.6875 223.408 20.6826 224.475 19.3906 224.475C18.0986 224.475 17.1689 223.497 17.1758 222.273Z" fill="white"/>
<path d="M69.4035 229V220.068L67.5065 221.209V220.054L69.4035 218.92H70.4465V229H69.4035ZM76.3916 229.21C75.7709 229.21 75.2109 229.065 74.7116 228.776C74.2169 228.487 73.8249 228.095 73.5356 227.6C73.2462 227.101 73.1016 226.541 73.1016 225.92V222C73.1016 221.379 73.2462 220.822 73.5356 220.327C73.8249 219.828 74.2169 219.433 74.7116 219.144C75.2109 218.855 75.7709 218.71 76.3916 218.71C77.0122 218.71 77.5699 218.855 78.0646 219.144C78.5639 219.433 78.9582 219.828 79.2476 220.327C79.5369 220.822 79.6816 221.379 79.6816 222V225.92C79.6816 226.541 79.5369 227.101 79.2476 227.6C78.9582 228.095 78.5639 228.487 78.0646 228.776C77.5699 229.065 77.0122 229.21 76.3916 229.21ZM76.3916 228.216C76.8069 228.216 77.1849 228.116 77.5256 227.915C77.8662 227.71 78.1369 227.437 78.3376 227.096C78.5382 226.755 78.6386 226.38 78.6386 225.969V221.951C78.6386 221.536 78.5382 221.158 78.3376 220.817C78.1369 220.476 77.8662 220.206 77.5256 220.005C77.1849 219.8 76.8069 219.697 76.3916 219.697C75.9762 219.697 75.5982 219.8 75.2576 220.005C74.9169 220.206 74.6462 220.476 74.4456 220.817C74.2449 221.158 74.1446 221.536 74.1446 221.951V225.969C74.1446 226.38 74.2449 226.755 74.4456 227.096C74.6462 227.437 74.9169 227.71 75.2576 227.915C75.5982 228.116 75.9762 228.216 76.3916 228.216Z" fill="white"/>
<path d="M127.193 219.102H125.716L123.255 220.715V222.15L125.621 220.605H125.675V229H127.193V219.102ZM133.468 219.102H131.992L129.531 220.715V222.15L131.896 220.605H131.951V229H133.468V219.102Z" fill="white"/>
<path d="M180.834 219.102H179.357L176.896 220.715V222.15L179.262 220.605H179.316V229H180.834V219.102ZM183.35 229H190.008V227.715H185.441V227.633L187.451 225.596C189.311 223.771 189.83 222.889 189.844 221.781C189.83 220.175 188.511 218.965 186.604 218.965C184.717 218.965 183.336 220.161 183.35 221.973H184.771C184.778 220.92 185.476 220.223 186.576 220.223C187.615 220.223 188.408 220.845 188.408 221.822C188.408 222.69 187.868 223.319 186.781 224.447L183.35 227.906V229Z" fill="white"/>
<path d="M234.795 219.102H233.319L230.858 220.715V222.15L233.223 220.605H233.278V229H234.795V219.102ZM240.825 229.137C242.875 229.137 244.4 227.927 244.393 226.279C244.4 225.028 243.614 224.119 242.26 223.928V223.859C243.327 223.593 244.024 222.786 244.01 221.658C244.024 220.195 242.8 218.965 240.852 218.965C239.006 218.965 237.516 220.059 237.475 221.672H238.924C238.958 220.776 239.847 220.223 240.838 220.223C241.884 220.223 242.561 220.838 242.561 221.74C242.561 222.69 241.775 223.319 240.647 223.312H239.799V224.543H240.647C242.062 224.55 242.875 225.247 242.875 226.225C242.875 227.188 242.007 227.838 240.811 227.838C239.704 227.838 238.842 227.284 238.788 226.416H237.256C237.318 228.036 238.774 229.137 240.825 229.137Z" fill="white"/>
<path d="M289.387 219.102H287.911L285.45 220.715V222.15L287.815 220.605H287.87V229H289.387V219.102ZM291.684 227.072H296.497V229H297.918V227.072H299.272V225.801H297.918V219.102H296.059L291.684 225.855V227.072ZM293.27 225.801V225.719L296.387 220.893H296.497V225.801H293.27Z" fill="white"/>
<path d="M344.752 219.102H343.275L340.814 220.715V222.15L343.18 220.605H343.234V229H344.752V219.102ZM350.631 229.137C352.695 229.137 354.158 227.735 354.158 225.787C354.158 223.88 352.784 222.499 350.918 222.492C350.166 222.499 349.469 222.766 349.059 223.162H348.963L349.291 220.387H353.652V219.102H348.047L347.404 224.611H348.826C349.161 224.003 349.77 223.736 350.562 223.736C351.807 223.75 352.695 224.625 352.695 225.828C352.695 227.004 351.834 227.872 350.631 227.879C349.633 227.872 348.826 227.257 348.744 226.416H347.281C347.35 227.995 348.758 229.137 350.631 229.137Z" fill="white"/>
<path d="M348.997 94.1016H347.521L345.06 95.7148V97.1504L347.425 95.6055H347.479V104H348.997V94.1016Z" fill="black"/>
<circle cx="183" cy="291" r="20" fill="#687BFF"/>
<circle cx="238" cy="157" r="20" fill="#8A98FF"/>
<circle cx="129" cy="157" r="20" fill="#263FE9"/>
<circle cx="292" cy="157" r="20" fill="#A5AFF5"/>
<circle cx="347" cy="157" r="20" fill="#8A98FF"/>
<circle cx="128" cy="291" r="20" fill="#687BFF"/>
<circle cx="74" cy="291" r="20" fill="#B1BBFF"/>
<circle cx="20" cy="291" r="20" fill="#B1BBFF"/>
<circle cx="238" cy="291" r="20" fill="#263FE9"/>
<circle cx="292" cy="291" r="20" fill="#263FE9"/>
<circle cx="348" cy="291" r="20" fill="#B1BBFF"/>
<path d="M15.3574 430.137C17.333 430.137 18.8096 428.934 18.8027 427.307C18.8096 426.049 18.0303 425.126 16.7383 424.928V424.859C17.7773 424.565 18.4336 423.745 18.4199 422.617C18.4336 421.202 17.2852 419.965 15.3984 419.965C13.6416 419.965 12.1787 421.018 12.1172 422.59H13.3066C13.3613 421.619 14.3252 421.038 15.3848 421.031C16.5127 421.038 17.2373 421.694 17.2305 422.686C17.2373 423.704 16.3965 424.381 15.1934 424.381H14.3867V425.461H15.1934C16.7314 425.468 17.5928 426.227 17.5996 427.307C17.5928 428.339 16.6494 429.043 15.3438 429.043C14.1611 429.043 13.2246 428.455 13.1562 427.512H11.9121C11.9736 429.084 13.3887 430.137 15.3574 430.137ZM23.8203 430.137C26.0146 430.137 27.2793 428.291 27.2793 425.051C27.2793 421.838 25.9941 419.965 23.8203 419.965C21.6396 419.965 20.3545 421.838 20.3613 425.051C20.3545 428.291 21.626 430.137 23.8203 430.137ZM21.5508 425.051C21.5576 422.487 22.3984 421.038 23.8203 421.031C25.2422 421.038 26.083 422.487 26.0762 425.051C26.083 427.614 25.249 429.043 23.8203 429.043C22.3848 429.043 21.5576 427.614 21.5508 425.051Z" fill="black"/>
<path d="M71.1245 430.137C73.1001 430.137 74.5767 428.934 74.5698 427.307C74.5767 426.049 73.7974 425.126 72.5054 424.928V424.859C73.5444 424.565 74.2007 423.745 74.187 422.617C74.2007 421.202 73.0522 419.965 71.1655 419.965C69.4087 419.965 67.9458 421.018 67.8843 422.59H69.0737C69.1284 421.619 70.0923 421.038 71.1519 421.031C72.2798 421.038 73.0044 421.694 72.9976 422.686C73.0044 423.704 72.1636 424.381 70.9604 424.381H70.1538V425.461H70.9604C72.4985 425.468 73.3599 426.227 73.3667 427.307C73.3599 428.339 72.4165 429.043 71.1108 429.043C69.9282 429.043 68.9917 428.455 68.9233 427.512H67.6792C67.7407 429.084 69.1558 430.137 71.1245 430.137ZM79.8472 420.102H78.603L76.1421 421.742V422.986L78.5483 421.387H78.603V430H79.8472V420.102Z" fill="black"/>
<path d="M16.5674 286.102H15.3232L12.8623 287.742V288.986L15.2686 287.387H15.3232V296H16.5674V286.102ZM22.6514 296.137C24.7363 296.157 26.0967 294.667 26.0967 292.801C26.0967 290.887 24.627 289.52 22.8701 289.52C21.8037 289.52 20.8945 290.005 20.3271 290.832H20.2041C20.1973 288.446 21.1748 287.059 22.8018 287.059C23.9023 287.059 24.5723 287.715 24.7979 288.59H26.0146C25.7617 287.038 24.5449 285.965 22.8018 285.965C20.4775 285.965 19.042 287.927 19.042 291.434C19.042 295.098 20.9355 296.116 22.6514 296.137ZM20.3682 292.828C20.3818 291.659 21.3799 290.606 22.6787 290.6C23.9707 290.606 24.9004 291.598 24.9072 292.814C24.9004 294.045 23.9297 295.05 22.6514 295.057C21.3252 295.05 20.375 293.99 20.3682 292.828Z" fill="white"/>
<path d="M71.1646 286.102H69.9204L67.4595 287.742V288.986L69.8657 287.387H69.9204V296H71.1646V286.102ZM74.1177 296H75.4028L79.9282 287.25V286.102H73.4204V287.195H78.6567V287.264L74.1177 296Z" fill="white"/>
<path d="M126.003 286.102H124.527L122.066 287.715V289.15L124.431 287.605H124.486V296H126.003V286.102ZM131.978 296.137C134.097 296.137 135.608 294.975 135.615 293.361C135.608 292.09 134.692 291.051 133.537 290.873V290.818C134.535 290.586 135.225 289.684 135.232 288.604C135.225 287.079 133.844 285.965 131.978 285.965C130.084 285.965 128.71 287.079 128.71 288.604C128.71 289.684 129.387 290.586 130.406 290.818V290.873C129.237 291.051 128.328 292.09 128.341 293.361C128.328 294.975 129.825 296.137 131.978 296.137ZM129.873 293.252C129.852 292.233 130.748 291.488 131.978 291.488C133.195 291.488 134.083 292.233 134.083 293.252C134.083 294.223 133.263 294.893 131.978 294.893C130.672 294.893 129.852 294.223 129.873 293.252ZM130.173 288.74C130.18 287.817 130.891 287.188 131.978 287.195C133.038 287.188 133.762 287.817 133.755 288.74C133.762 289.67 133.01 290.306 131.978 290.299C130.918 290.306 130.18 289.663 130.173 288.74Z" fill="white"/>
<path d="M180.636 286.102H179.159L176.698 287.715V289.15L179.063 287.605H179.118V296H180.636V286.102ZM186.556 285.965C184.402 285.951 183.001 287.428 183.001 289.314C183.001 291.208 184.423 292.568 186.2 292.568C187.267 292.568 188.196 292.062 188.729 291.229H188.853C188.839 293.491 187.943 294.817 186.419 294.824C185.421 294.817 184.778 294.236 184.573 293.402H183.083C183.322 295.009 184.594 296.137 186.419 296.137C188.791 296.137 190.288 294.168 190.288 290.695C190.281 287.072 188.374 285.979 186.556 285.965ZM184.464 289.287C184.457 288.152 185.359 287.223 186.556 287.223C187.766 287.223 188.647 288.2 188.647 289.273C188.647 290.367 187.725 291.345 186.528 291.338C185.325 291.345 184.471 290.436 184.464 289.287Z" fill="white"/>
<path d="M230.558 296H237.216V294.715H232.65V294.633L234.66 292.596C236.519 290.771 237.039 289.889 237.052 288.781C237.039 287.175 235.719 285.965 233.812 285.965C231.925 285.965 230.544 287.161 230.558 288.973H231.98C231.987 287.92 232.684 287.223 233.785 287.223C234.824 287.223 235.617 287.845 235.617 288.822C235.617 289.69 235.077 290.319 233.99 291.447L230.558 294.906V296ZM242.33 296.137C244.62 296.137 245.959 294.291 245.966 291.051C245.959 287.831 244.599 285.965 242.33 285.965C240.053 285.965 238.693 287.831 238.693 291.051C238.693 294.291 240.04 296.137 242.33 296.137ZM240.197 291.051C240.197 288.59 240.997 287.243 242.33 287.236C243.656 287.243 244.462 288.59 244.462 291.051C244.462 293.519 243.663 294.838 242.33 294.838C240.99 294.838 240.19 293.519 240.197 291.051Z" fill="white"/>
<path d="M286.408 296H293.066V294.715H288.5V294.633L290.509 292.596C292.369 290.771 292.888 289.889 292.902 288.781C292.888 287.175 291.569 285.965 289.662 285.965C287.775 285.965 286.394 287.161 286.408 288.973H287.83C287.836 287.92 288.534 287.223 289.634 287.223C290.673 287.223 291.466 287.845 291.466 288.822C291.466 289.69 290.926 290.319 289.839 291.447L286.408 294.906V296ZM298.494 286.102H297.017L294.556 287.715V289.15L296.921 287.605H296.976V296H298.494V286.102Z" fill="white"/>
<path d="M340.049 296H346.707V294.715H342.141V294.633L344.15 292.596C346.01 290.771 346.529 289.889 346.543 288.781C346.529 287.175 345.21 285.965 343.303 285.965C341.416 285.965 340.035 287.161 340.049 288.973H341.471C341.478 287.92 342.175 287.223 343.275 287.223C344.314 287.223 345.107 287.845 345.107 288.822C345.107 289.69 344.567 290.319 343.48 291.447L340.049 294.906V296ZM348.375 296H355.033V294.715H350.467V294.633L352.477 292.596C354.336 290.771 354.855 289.889 354.869 288.781C354.855 287.175 353.536 285.965 351.629 285.965C349.742 285.965 348.361 287.161 348.375 288.973H349.797C349.804 287.92 350.501 287.223 351.602 287.223C352.641 287.223 353.434 287.845 353.434 288.822C353.434 289.69 352.894 290.319 351.807 291.447L348.375 294.906V296Z" fill="white"/>
<path d="M16.3213 162H22.7471V160.906H18.0303V160.824L20.2998 158.486C22.0498 156.682 22.5625 155.82 22.5693 154.713C22.5625 153.175 21.291 151.965 19.4932 151.965C17.7021 151.965 16.3486 153.141 16.3623 154.891H17.5244C17.5312 153.783 18.2695 153.038 19.4521 153.031C20.5664 153.038 21.4141 153.694 21.4209 154.713C21.4141 155.629 20.8535 156.299 19.6846 157.543L16.3076 161.098L16.3213 162Z" fill="black"/>
<path d="M74.1938 162.137C76.1694 162.137 77.646 160.934 77.6392 159.307C77.646 158.049 76.8667 157.126 75.5747 156.928V156.859C76.6138 156.565 77.27 155.745 77.2563 154.617C77.27 153.202 76.1216 151.965 74.2349 151.965C72.478 151.965 71.0151 153.018 70.9536 154.59H72.1431C72.1978 153.619 73.1616 153.038 74.2212 153.031C75.3491 153.038 76.0737 153.694 76.0669 154.686C76.0737 155.704 75.2329 156.381 74.0298 156.381H73.2231V157.461H74.0298C75.5679 157.468 76.4292 158.227 76.436 159.307C76.4292 160.339 75.4858 161.043 74.1802 161.043C72.9976 161.043 72.061 160.455 71.9927 159.512H70.7485C70.8101 161.084 72.2251 162.137 74.1938 162.137Z" fill="black"/>
<path d="M125.046 160.072H129.859V162H131.281V160.072H132.634V158.801H131.281V152.102H129.421L125.046 158.855V160.072ZM126.632 158.801V158.719L129.75 153.893H129.859V158.801H126.632Z" fill="white"/>
<path d="M183.493 162.137C185.558 162.137 187.021 160.735 187.021 158.787C187.021 156.88 185.646 155.499 183.78 155.492C183.028 155.499 182.331 155.766 181.921 156.162H181.825L182.153 153.387H186.515V152.102H180.909L180.267 157.611H181.688C182.023 157.003 182.632 156.736 183.425 156.736C184.669 156.75 185.558 157.625 185.558 158.828C185.558 160.004 184.696 160.872 183.493 160.879C182.495 160.872 181.688 160.257 181.606 159.416H180.144C180.212 160.995 181.62 162.137 183.493 162.137Z" fill="black"/>
<path d="M238.262 162.137C240.388 162.15 241.803 160.681 241.803 158.76C241.803 156.866 240.381 155.513 238.618 155.506C237.544 155.513 236.615 156.005 236.075 156.846H235.965C235.965 154.61 236.854 153.284 238.385 153.277C239.383 153.284 240.019 153.865 240.217 154.672H241.708C241.475 153.1 240.21 151.965 238.385 151.965C236.013 151.965 234.523 153.934 234.516 157.379C234.516 161.036 236.43 162.123 238.262 162.137ZM236.143 158.801C236.157 157.7 237.08 156.729 238.29 156.736C239.479 156.729 240.34 157.652 240.34 158.787C240.34 159.942 239.445 160.872 238.249 160.879C237.032 160.872 236.15 159.901 236.143 158.801Z" fill="white"/>
<path d="M289.633 162H291.206L295.608 153.441V152.102H288.95V153.387H294.049V153.469L289.633 162Z" fill="white"/>
<path d="M347.507 162.137C349.626 162.137 351.137 160.975 351.144 159.361C351.137 158.09 350.221 157.051 349.065 156.873V156.818C350.063 156.586 350.754 155.684 350.761 154.604C350.754 153.079 349.373 151.965 347.507 151.965C345.613 151.965 344.239 153.079 344.239 154.604C344.239 155.684 344.916 156.586 345.935 156.818V156.873C344.766 157.051 343.856 158.09 343.87 159.361C343.856 160.975 345.354 162.137 347.507 162.137ZM345.401 159.252C345.381 158.233 346.276 157.488 347.507 157.488C348.724 157.488 349.612 158.233 349.612 159.252C349.612 160.223 348.792 160.893 347.507 160.893C346.201 160.893 345.381 160.223 345.401 159.252ZM345.702 154.74C345.709 153.817 346.42 153.188 347.507 153.195C348.566 153.188 349.291 153.817 349.284 154.74C349.291 155.67 348.539 156.306 347.507 156.299C346.447 156.306 345.709 155.663 345.702 154.74Z" fill="white"/>
</svg>
