<svg width="52" height="63" viewBox="0 0 52 63" fill="none" xmlns="http://www.w3.org/2000/svg">
<path fill-rule="evenodd" clip-rule="evenodd" d="M9.75 0C4.36522 0 0 4.23091 0 9.45V53.55C0 58.7691 4.36522 63 9.75 63H42.25C47.6348 63 52 58.7691 52 53.55V9.45C52 4.23091 47.6348 0 42.25 0H9.75ZM13 22.05C16.5899 22.05 19.5 19.2294 19.5 15.75C19.5 12.2706 16.5899 9.45 13 9.45C9.41015 9.45 6.5 12.2706 6.5 15.75C6.5 19.2294 9.41015 22.05 13 22.05ZM45.5 31.5H6.5V37.8H45.5V31.5ZM6.5 44.1H22.75C24.5449 44.1 26 45.5103 26 47.25C26 48.9897 24.5449 50.4 22.75 50.4H6.5V44.1Z" fill="white"/>
</svg>
