<svg width="344" height="448" viewBox="0 0 344 448" fill="none" xmlns="http://www.w3.org/2000/svg">
<g clip-path="url(#clip0_3_436)">
<path d="M22.2708 184.324C22.4987 182.842 22.8748 180.805 22.5329 179.379C21.0512 173.245 22.0656 168.888 23.0686 167.632C25.861 164.147 31.3546 163.513 36.7456 163.524C40.0053 163.524 57.8196 169.25 61.4554 172.985C65.0913 176.719 66.5957 186.689 65.8435 191.046C65.0913 195.403 58.0704 205.373 47.653 205.124C37.2357 204.875 26.9551 201.141 24.4477 197.282C21.9402 193.423 21.6553 188.342 22.2708 184.324Z" fill="#BCC4FF"/>
<path d="M74.46 140.076C75.4402 147.625 72.2489 161.657 58.5833 162.427C44.9177 163.196 32.2778 155.897 31.4344 149.424C30.591 142.951 31.7649 136.976 34.3635 135.98C36.9622 134.984 36.6203 133.66 36.039 131.917C35.4577 130.174 36.1188 124.697 39.6292 122.377C43.1396 120.057 48.713 119.062 52.9415 119.718C57.17 120.374 72.6022 125.738 74.46 140.065V140.076Z" fill="#6074FF"/>
<path d="M82.9169 114.501C80.8426 121.868 63.1992 121.053 51.4142 112.928C39.6292 104.803 46.2283 95.6702 49.1575 93.6785C52.0866 91.6868 58.1843 89.2764 67.6215 92.5129C77.0586 95.7494 85.9259 103.795 82.9169 114.501Z" fill="#BCC4FF"/>
<path d="M77.5602 66.2132C88.1599 66.6999 93.1862 76.0813 93.7674 83.3013C94.3487 90.5212 91.6817 93.588 86.3249 93.6672C80.968 93.7464 66.9377 90.7589 62.504 81.5585C58.0704 72.3581 66.7667 65.7153 77.5488 66.2132H77.5602Z" fill="#BCC4FF"/>
<path d="M110.408 67.9559C105.951 72.2336 93.7788 69.1215 85.5042 61.9808C77.2296 54.84 80.2386 48.6272 84.6722 43.9761C89.1058 39.325 97.7907 37.2541 102.133 39.4948C106.476 41.7354 108.482 46.545 108.903 49.7023C109.325 52.8596 110.157 57.2504 111.411 59.3214C112.665 61.3923 112.915 65.5455 110.408 67.9446V67.9559Z" fill="#BCC4FF"/>
<path d="M104.39 36.5072C103.957 41.4865 115.753 51.7733 128.291 51.7733C140.828 51.7733 135.403 25.4622 133.305 23.6516C129.088 19.985 104.891 30.7018 104.39 36.5072Z" fill="#BCC4FF"/>
<path d="M135.767 22.1239C137.477 29.3891 145.581 46.0132 156.066 45.5266C166.552 45.0399 170.792 28.6309 170.792 16.5788C170.792 10.7508 134.32 16.0016 135.767 22.1239Z" fill="#BCC4FF"/>
<path d="M322.151 184.324C321.923 182.842 321.547 180.805 321.889 179.379C323.37 173.245 322.356 168.888 321.353 167.632C318.561 164.147 313.067 163.513 307.676 163.524C304.416 163.524 286.602 169.25 282.966 172.985C279.33 176.719 277.826 186.689 278.578 191.046C279.33 195.403 286.351 205.373 296.769 205.124C307.175 204.875 317.467 201.141 319.974 197.282C322.481 193.423 322.766 188.342 322.151 184.324Z" fill="#BCC4FF"/>
<path d="M269.962 140.076C268.982 147.625 272.173 161.657 285.838 162.427C299.504 163.196 312.144 155.897 312.987 149.424C313.831 142.951 312.657 136.976 310.058 135.98C307.46 134.984 307.801 133.66 308.383 131.917C308.964 130.174 308.303 124.697 304.793 122.377C301.282 120.057 295.709 119.062 291.48 119.718C287.252 120.374 271.82 125.738 269.962 140.065V140.076Z" fill="#BCC4FF"/>
<path d="M261.505 114.501C263.579 121.868 281.222 121.053 293.007 112.928C304.792 104.791 298.193 95.6702 295.264 93.6785C292.335 91.6868 286.237 89.2764 276.8 92.5129C267.363 95.7494 258.496 103.795 261.505 114.501Z" fill="#BCC4FF"/>
<path d="M266.85 66.2132C256.251 66.6998 251.224 76.0812 250.643 83.3012C250.062 90.5211 252.729 93.5879 258.086 93.6671C263.442 93.7464 277.473 90.7588 281.906 81.5584C286.34 72.3467 277.644 65.7152 266.862 66.2132H266.85Z" fill="#BCC4FF"/>
<path d="M234.014 67.9559C238.47 72.2336 250.643 69.1215 258.917 61.9808C267.192 54.84 264.183 48.6272 259.75 43.9761C255.316 39.325 246.631 37.2541 242.289 39.4948C237.946 41.7354 235.94 46.545 235.518 49.7023C235.097 52.8596 234.265 57.2504 233.011 59.3214C231.757 61.3923 231.506 65.5455 234.014 67.9446V67.9559Z" fill="#BCC4FF"/>
<path d="M240.032 36.5072C240.465 41.4865 228.668 51.7733 216.131 51.7733C203.594 51.7733 209.019 25.4622 211.116 23.6516C215.333 19.985 239.53 30.7018 240.032 36.5072Z" fill="#BCC4FF"/>
<path d="M208.654 22.1239C206.945 29.3891 198.841 46.0132 188.355 45.5266C177.87 45.0513 173.63 28.6309 173.63 16.5788C173.63 10.7508 210.102 16.0016 208.654 22.1239Z" fill="#BCC4FF"/>
<path d="M22.2708 261.197C22.4987 262.68 22.8748 264.717 22.5329 266.143C21.0512 272.276 22.0656 276.633 23.0686 277.889C25.861 281.375 31.3546 282.009 36.7456 281.997C40.0053 281.997 57.8196 276.271 61.4554 272.537C65.0913 268.802 66.5957 258.832 65.8435 254.475C65.0913 250.119 58.0704 240.149 47.653 240.398C37.2357 240.647 26.9551 244.381 24.4477 248.24C21.9402 252.099 21.6553 257.18 22.2708 261.197Z" fill="#6074FF"/>
<path d="M74.46 305.445C75.4402 297.897 72.2489 283.865 58.5833 283.095C44.9177 282.314 32.2778 289.625 31.4344 296.098C30.591 302.571 31.7649 308.546 34.3635 309.542C36.9622 310.538 36.6203 311.862 36.039 313.605C35.4577 315.347 36.1188 320.825 39.6292 323.144C43.1396 325.464 48.713 326.46 52.9415 325.804C57.17 325.147 72.6022 319.783 74.46 305.457V305.445Z" fill="#BCC4FF"/>
<path d="M82.9169 331.021C80.8426 323.654 63.1992 324.468 51.4142 332.594C39.6292 340.73 46.2283 349.851 49.1575 351.843C52.0866 353.835 58.1843 356.245 67.6215 353.009C77.0586 349.772 85.9259 341.726 82.9169 331.021Z" fill="#BCC4FF"/>
<path d="M77.5602 379.309C88.1599 378.822 93.1862 369.44 93.7674 362.22C94.3487 355.001 91.6817 351.934 86.3249 351.855C80.968 351.775 66.9377 354.763 62.504 363.963C58.0704 373.164 66.7667 379.806 77.5488 379.309H77.5602Z" fill="#BCC4FF"/>
<path d="M110.408 377.566C105.951 373.288 93.7788 376.4 85.5042 383.541C77.2296 390.682 80.2386 396.894 84.6722 401.545C89.1058 406.197 97.7907 408.268 102.133 406.027C106.476 403.786 108.482 398.977 108.903 395.819C109.325 392.662 110.157 388.271 111.411 386.2C112.665 384.129 112.915 379.976 110.408 377.577V377.566Z" fill="#BCC4FF"/>
<path d="M104.39 409.014C103.957 404.035 115.753 393.748 128.291 393.748C140.828 393.748 135.403 420.059 133.305 421.87C129.088 425.537 104.891 414.82 104.39 409.014Z" fill="#BCC4FF"/>
<path d="M135.767 423.398C137.477 416.133 145.581 399.508 156.066 399.995C166.552 400.482 170.792 416.891 170.792 428.943C170.792 434.771 134.32 429.52 135.767 423.398Z" fill="#BCC4FF"/>
<path d="M322.151 261.197C321.923 262.68 321.547 264.717 321.889 266.143C323.37 272.276 322.356 276.633 321.353 277.889C318.561 281.375 313.067 282.009 307.676 281.997C304.416 281.997 286.602 276.271 282.966 272.537C279.33 268.802 277.826 258.832 278.578 254.475C279.33 250.119 286.351 240.149 296.769 240.398C307.186 240.647 317.467 244.381 319.974 248.24C322.481 252.099 322.766 257.18 322.151 261.197Z" fill="#BCC4FF"/>
<path d="M269.962 305.445C268.982 297.897 272.173 283.865 285.838 283.095C299.504 282.314 312.144 289.625 312.987 296.098C313.819 302.571 312.657 308.546 310.058 309.542C307.46 310.538 307.801 311.862 308.383 313.605C308.964 315.347 308.303 320.825 304.793 323.144C301.282 325.464 295.709 326.46 291.48 325.804C287.252 325.147 271.82 319.783 269.962 305.457V305.445Z" fill="#BCC4FF"/>
<path d="M261.505 331.021C263.579 323.654 281.222 324.468 293.007 332.594C304.792 340.719 298.193 349.851 295.264 351.843C292.335 353.835 286.237 356.245 276.8 353.009C267.363 349.772 258.496 341.726 261.505 331.021Z" fill="#6074FF"/>
<path d="M266.85 379.309C256.251 378.822 251.224 369.44 250.643 362.22C250.062 355.001 252.729 351.934 258.086 351.855C263.442 351.775 277.473 354.763 281.906 363.963C286.34 373.164 277.644 379.806 266.862 379.309H266.85Z" fill="#BCC4FF"/>
<path d="M234.014 377.566C238.47 373.288 250.643 376.4 258.917 383.541C267.192 390.682 264.183 396.894 259.75 401.545C255.316 406.197 246.631 408.268 242.289 406.027C237.946 403.786 235.94 398.977 235.518 395.819C235.097 392.662 234.265 388.271 233.011 386.2C231.757 384.129 231.506 379.976 234.014 377.577V377.566Z" fill="#BCC4FF"/>
<path d="M240.032 409.014C240.465 404.035 228.668 393.748 216.131 393.748C203.594 393.748 209.019 420.059 211.116 421.87C215.333 425.537 239.53 414.82 240.032 409.014Z" fill="#BCC4FF"/>
<path d="M208.654 423.398C206.945 416.133 198.841 399.508 188.355 399.995C177.87 400.482 173.63 416.891 173.63 428.943C173.63 434.771 210.102 429.52 208.654 423.398Z" fill="#BCC4FF"/>
<path d="M6.86133 175.452L5.1745 175.78V174.75L7.71615 173.619H8.66214V183.6H6.86133V175.452Z" fill="#BCC4FF"/>
<path d="M17.3242 130.378L19.239 128.386C20.6181 126.949 21.7237 125.716 21.7237 124.482C21.7237 123.249 21.0626 122.807 19.7975 122.807C19.1022 122.807 18.2816 123.147 17.7345 123.475L17.4496 122.174C18.122 121.778 19.1364 121.415 20.2762 121.415C22.4645 121.415 23.5815 122.457 23.5815 124.256C23.5815 126.055 22.0656 127.594 20.8461 128.839L19.6721 130.039H23.6612V131.419H17.3242V130.389V130.378Z" fill="#6074FF"/>
<path d="M30.1693 96.3832L30.4656 95.0931C30.9671 95.4213 32.0384 95.6589 32.7907 95.6589C34.1356 95.6589 34.9106 95.1044 34.9106 94.0067C34.9106 92.909 34.1128 92.5129 32.8477 92.5016L31.8105 92.479V91.1889H32.7451C33.8962 91.1436 34.6599 90.6344 34.6599 89.6951C34.6599 88.6992 33.976 88.3371 32.8819 88.3371C32.141 88.3371 31.3546 88.5974 30.7619 88.869L30.5568 87.5563C31.1722 87.2054 32.369 86.9338 33.3492 86.9338C35.1956 86.9338 36.4493 87.8052 36.4493 89.3895C36.4493 90.5665 35.754 91.3247 34.6599 91.6981C35.9022 91.9471 36.7798 92.6487 36.7798 94.1312C36.7798 95.9531 35.3779 97.0961 33.0984 97.0961C31.9131 97.0961 30.7505 96.7679 30.1693 96.4058V96.3832Z" fill="#BCC4FF"/>
<path d="M55.6541 64.1649H51.0723V63.1351L56.1214 56.1301H57.3409V62.8522H58.7998V64.1649H57.3409V66.1906H55.6541V64.1649ZM55.6655 62.8522V59.129L53.0098 62.8522H55.6655Z" fill="#BCC4FF"/>
<path d="M74.3118 39.2798L74.631 37.9218C75.178 38.2386 75.9303 38.5215 76.6939 38.5215C78.0844 38.5215 78.9278 37.8539 78.9278 36.6656C78.9278 35.3982 78.1528 34.8889 76.7851 34.8889C76.1582 34.8889 75.2236 35.1832 74.7677 35.4208L75.1325 29.9775H80.3297V31.3582H76.4888L76.3064 33.7686C76.6369 33.6781 77.184 33.5875 77.5487 33.5875C79.5433 33.5875 80.7742 34.5947 80.7742 36.6996C80.7742 38.5329 79.4179 39.9587 77.1498 39.9587C76.0101 39.9587 74.9615 39.6758 74.3232 39.2798H74.3118Z" fill="#BCC4FF"/>
<path d="M330.956 262.069L329.269 262.397V261.367L331.811 260.236H332.757V270.217H330.956V262.069Z" fill="#BCC4FF"/>
<path d="M334.911 269.617L335.23 268.259C335.777 268.576 336.529 268.859 337.293 268.859C338.683 268.859 339.527 268.191 339.527 267.003C339.527 265.735 338.752 265.226 337.384 265.226C336.757 265.226 335.823 265.52 335.355 265.758L335.72 260.315H340.917V261.695H337.076L336.894 264.106C337.225 264.015 337.772 263.925 338.136 263.925C340.131 263.925 341.362 264.932 341.362 267.037C341.362 268.87 340.005 270.296 337.737 270.296C336.598 270.296 335.549 270.013 334.911 269.617Z" fill="#BCC4FF"/>
<path d="M0 269.108L1.91478 267.116C3.29388 265.679 4.39944 264.445 4.39944 263.212C4.39944 261.978 3.73839 261.537 2.47326 261.537C1.77801 261.537 0.957392 261.876 0.410311 262.205L0.125373 260.903C0.797826 260.507 1.81221 260.145 2.95196 260.145C5.14028 260.145 6.25724 261.186 6.25724 262.985C6.25724 264.785 4.74137 266.324 3.52183 267.569L2.34789 268.768H6.33702V270.149H0V269.119V269.108Z" fill="#6074FF"/>
<path d="M7.61357 267.648C7.61357 266.414 8.57096 265.532 9.66512 265.102C8.62795 264.638 7.89851 263.959 7.89851 262.737C7.89851 261.197 9.22062 260.145 11.3178 260.145C13.4149 260.145 14.6914 261.05 14.6914 262.601C14.6914 263.687 13.8936 264.457 12.8678 264.955C14.0304 265.351 15.0676 266.064 15.0676 267.467C15.0676 269.13 13.6771 270.33 11.3064 270.33C8.93568 270.33 7.60217 269.255 7.60217 267.659L7.61357 267.648ZM13.2781 267.58C13.2781 266.561 12.5145 266.052 11.0328 265.667C10.1438 265.962 9.3004 266.629 9.3004 267.512C9.3004 268.463 10.064 269.029 11.2836 269.029C12.5031 269.029 13.2781 268.429 13.2781 267.58ZM13.0046 262.737C13.0046 261.99 12.4689 261.435 11.352 261.435C10.3262 261.435 9.69932 261.91 9.69932 262.703C9.69932 263.54 10.3262 264.072 11.5685 264.377C12.3321 264.061 13.0046 263.54 13.0046 262.748V262.737Z" fill="#6074FF"/>
<path d="M322.595 304.687L320.92 305.015V303.985L323.462 302.854H324.408V312.835H322.607V304.687H322.595Z" fill="#BCC4FF"/>
<path d="M326.79 308.557V307.856C326.79 304.155 328.693 302.775 331.064 302.775C332.067 302.775 332.967 303.091 333.389 303.329L333.047 304.63C332.671 304.427 331.816 304.2 331.166 304.2C329.685 304.2 328.705 304.925 328.568 307.46C329.069 307.03 329.867 306.588 330.893 306.588C332.614 306.588 333.856 307.663 333.856 309.542C333.856 311.42 332.671 312.937 330.448 312.937C328.044 312.937 326.79 311.273 326.79 308.557ZM332.135 309.689C332.135 308.354 331.383 307.867 330.369 307.867C329.639 307.867 328.921 308.365 328.579 308.829V308.908C328.579 310.594 329.103 311.624 330.414 311.624C331.486 311.624 332.135 310.922 332.135 309.689Z" fill="#BCC4FF"/>
<path d="M305.795 342.53L304.109 342.858V341.828L306.65 340.696H307.596V350.678H305.795V342.53Z" fill="#6074FF"/>
<path d="M314.366 342.168H309.842V340.764H316.304V341.828L312.714 350.61H310.731L314.366 342.168Z" fill="#6074FF"/>
<path d="M23.9006 349.569L25.8154 347.577C27.1945 346.14 28.3 344.906 28.3 343.673C28.3 342.439 27.639 341.998 26.3738 341.998C25.6786 341.998 24.858 342.337 24.3109 342.665L24.0259 341.364C24.6984 340.968 25.7128 340.606 26.8525 340.606C29.0409 340.606 30.1578 341.647 30.1578 343.446C30.1578 345.246 28.6419 346.785 27.4224 348.029L26.2485 349.229H30.2376V350.61H23.9006V349.58V349.569Z" fill="#BCC4FF"/>
<path d="M31.4913 346.389V345.687C31.4913 341.986 33.3947 340.606 35.7654 340.606C36.7684 340.606 37.6688 340.923 38.0905 341.16L37.7486 342.462C37.3611 342.258 36.5176 342.032 35.868 342.032C34.3863 342.032 33.4061 342.756 33.2693 345.291C33.7708 344.861 34.5687 344.42 35.5944 344.42C37.3155 344.42 38.5578 345.495 38.5578 347.373C38.5578 349.252 37.3725 350.768 35.1499 350.768C32.7451 350.768 31.4913 349.105 31.4913 346.389ZM36.8368 347.52C36.8368 346.185 36.0845 345.698 35.0702 345.698C34.3407 345.698 33.6227 346.196 33.2807 346.66V346.739C33.2807 348.426 33.805 349.455 35.1157 349.455C36.1871 349.455 36.8368 348.754 36.8368 347.52Z" fill="#BCC4FF"/>
<path d="M286.602 376.762L284.915 377.09V376.061L287.457 374.929H288.403V384.91H286.602V376.762Z" fill="#BCC4FF"/>
<path d="M290.694 382.341C290.694 381.108 291.651 380.225 292.745 379.795C291.708 379.331 290.979 378.652 290.979 377.43C290.979 375.891 292.301 374.838 294.398 374.838C296.495 374.838 297.772 375.744 297.772 377.294C297.772 378.38 296.974 379.15 295.948 379.648C297.111 380.044 298.148 380.757 298.148 382.16C298.148 383.824 296.757 385.023 294.387 385.023C292.016 385.023 290.682 383.948 290.682 382.353L290.694 382.341ZM296.347 382.273C296.347 381.255 295.583 380.746 294.102 380.361C293.213 380.655 292.369 381.323 292.369 382.205C292.369 383.156 293.133 383.722 294.352 383.722C295.572 383.722 296.347 383.122 296.347 382.273ZM296.073 377.43C296.073 376.683 295.538 376.128 294.421 376.128C293.395 376.128 292.768 376.604 292.768 377.396C292.768 378.233 293.395 378.765 294.637 379.071C295.401 378.754 296.073 378.233 296.073 377.441V377.43Z" fill="#BCC4FF"/>
<path d="M266.44 405.97L264.764 406.298V405.269L267.306 404.137H268.252V414.118H266.451V405.97H266.44Z" fill="#BCC4FF"/>
<path d="M277.587 408.415V409.071C277.587 412.896 275.809 414.231 273.392 414.231C272.389 414.231 271.443 413.892 270.976 413.609L271.272 412.319C271.683 412.534 272.583 412.805 273.29 412.805C274.737 412.805 275.717 412.206 275.82 409.693C275.318 410.157 274.521 410.576 273.483 410.576C271.774 410.576 270.52 409.41 270.52 407.509C270.52 405.608 271.637 404.058 273.86 404.058C276.253 404.058 277.587 405.619 277.587 408.415ZM272.23 407.374C272.23 408.709 272.982 409.286 274.008 409.286C274.737 409.286 275.467 408.799 275.809 408.324V408.075C275.809 406.434 275.239 405.37 273.894 405.37C272.811 405.37 272.23 406.163 272.23 407.362V407.374Z" fill="#BCC4FF"/>
<path d="M229.25 433.787L231.165 431.795C232.544 430.358 233.649 429.125 233.649 427.891C233.649 426.658 232.988 426.216 231.723 426.216C231.028 426.216 230.207 426.556 229.66 426.884L229.375 425.583C230.048 425.187 231.051 424.824 232.202 424.824C234.39 424.824 235.507 425.866 235.507 427.665C235.507 429.464 233.991 431.003 232.772 432.248L231.598 433.448H235.587V434.828H229.238V433.798L229.25 433.787Z" fill="#BCC4FF"/>
<path d="M236.989 430.244V429.633C236.989 426.091 238.835 424.812 240.887 424.812C242.938 424.812 244.716 426.102 244.716 429.577V430.199C244.716 433.673 242.95 434.986 240.864 434.986C238.778 434.986 237 433.605 237 430.233L236.989 430.244ZM242.87 430.324V429.577C242.87 427.223 242.186 426.182 240.875 426.182C239.564 426.182 238.869 427.178 238.869 429.475V430.233C238.869 432.53 239.53 433.628 240.864 433.628C242.197 433.628 242.87 432.677 242.87 430.312V430.324Z" fill="#BCC4FF"/>
<path d="M105.29 433.786L107.205 431.795C108.584 430.357 109.69 429.124 109.69 427.89C109.69 426.657 109.029 426.216 107.764 426.216C107.068 426.216 106.248 426.555 105.701 426.883L105.416 425.582C106.088 425.186 107.102 424.824 108.242 424.824C110.431 424.824 111.548 425.865 111.548 427.664C111.548 429.463 110.032 431.002 108.812 432.247L107.638 433.447H111.627V434.827H105.29V433.798V433.786Z" fill="#BCC4FF"/>
<path d="M112.835 434.273L113.132 432.983C113.633 433.311 114.705 433.549 115.457 433.549C116.802 433.549 117.577 432.994 117.577 431.896C117.577 430.799 116.779 430.403 115.514 430.391L114.477 430.369V429.079H115.411C116.562 429.033 117.326 428.524 117.326 427.585C117.326 426.589 116.642 426.227 115.548 426.227C114.807 426.227 114.021 426.487 113.428 426.759L113.223 425.446C113.838 425.095 115.035 424.824 116.015 424.824C117.862 424.824 119.115 425.695 119.115 427.279C119.115 428.456 118.42 429.214 117.326 429.588C118.568 429.837 119.446 430.538 119.446 432.021C119.446 433.843 118.044 434.986 115.765 434.986C114.579 434.986 113.417 434.658 112.835 434.296V434.273Z" fill="#BCC4FF"/>
<path d="M146.23 446.902L148.145 444.911C149.524 443.473 150.63 442.24 150.63 441.006C150.63 439.773 149.969 439.332 148.703 439.332C148.008 439.332 147.188 439.671 146.641 439.999L146.356 438.698C147.028 438.302 148.042 437.94 149.182 437.94C151.371 437.94 152.487 438.981 152.487 440.78C152.487 442.579 150.972 444.118 149.752 445.363L148.578 446.563H152.567V447.943H146.23V446.914V446.902Z" fill="#BCC4FF"/>
<path d="M154.015 446.902L155.929 444.911C157.309 443.473 158.414 442.24 158.414 441.006C158.414 439.773 157.753 439.332 156.488 439.332C155.793 439.332 154.972 439.671 154.425 439.999L154.14 438.698C154.813 438.302 155.827 437.94 156.967 437.94C159.155 437.94 160.272 438.981 160.272 440.78C160.272 442.579 158.756 444.118 157.537 445.363L156.363 446.563H160.352V447.943H154.015V446.914V446.902Z" fill="#BCC4FF"/>
<path d="M185.119 446.902L187.033 444.911C188.412 443.473 189.518 442.24 189.518 441.006C189.518 439.773 188.857 439.332 187.592 439.332C186.897 439.332 186.076 439.671 185.529 439.999L185.244 438.698C185.916 438.302 186.919 437.94 188.071 437.94C190.259 437.94 191.376 438.981 191.376 440.78C191.376 442.579 189.86 444.118 188.64 445.363L187.466 446.563H191.456V447.943H185.107V446.914L185.119 446.902Z" fill="#BCC4FF"/>
<path d="M194.442 439.852L192.766 440.18V439.15L195.308 438.019H196.254V448H194.453V439.852H194.442Z" fill="#BCC4FF"/>
<path d="M68.009 413.02L69.9238 411.029C71.3029 409.592 72.4085 408.358 72.4085 407.125C72.4085 405.891 71.7474 405.45 70.4823 405.45C69.787 405.45 68.9664 405.789 68.4193 406.117L68.1344 404.816C68.8069 404.42 69.8212 404.058 70.961 404.058C73.1493 404.058 74.2663 405.099 74.2663 406.898C74.2663 408.698 72.7504 410.237 71.5309 411.481L70.3569 412.681H74.3461V414.062H68.009V413.032V413.02Z" fill="#BCC4FF"/>
<path d="M79.7713 412.194H75.1895V411.165L80.2386 404.16H81.4581V410.882H82.917V412.194H81.4581V414.22H79.7713V412.194ZM79.7827 410.882V407.159L77.127 410.882H79.7827Z" fill="#BCC4FF"/>
<path d="M44.8834 383.812L46.7982 381.821C48.1773 380.384 49.2829 379.15 49.2829 377.917C49.2829 376.683 48.6218 376.242 47.3567 376.242C46.6614 376.242 45.8408 376.581 45.2937 376.909L45.0088 375.608C45.6813 375.212 46.6956 374.85 47.8354 374.85C50.0237 374.85 51.1407 375.891 51.1407 377.69C51.1407 379.49 49.6248 381.029 48.4053 382.273L47.2313 383.473H51.2204V384.854H44.8834V383.824V383.812Z" fill="#BCC4FF"/>
<path d="M52.3602 384.31L52.6793 382.952C53.2264 383.269 53.9786 383.552 54.7423 383.552C56.1327 383.552 56.9762 382.885 56.9762 381.696C56.9762 380.429 56.2011 379.92 54.8334 379.92C54.2066 379.92 53.272 380.214 52.8161 380.451L53.1808 375.008H58.3781V376.389H54.5371L54.3547 378.799C54.6853 378.709 55.2323 378.618 55.5971 378.618C57.5916 378.618 58.8226 379.625 58.8226 381.73C58.8226 383.564 57.4663 384.989 55.1982 384.989C54.0584 384.989 53.0098 384.706 52.3716 384.31H52.3602Z" fill="#BCC4FF"/>
<path d="M7.47675 311.737L9.39153 309.746C10.7706 308.308 11.8762 307.075 11.8762 305.841C11.8762 304.608 11.2151 304.166 9.95001 304.166C9.25476 304.166 8.43414 304.506 7.88706 304.834L7.60212 303.533C8.27457 303.137 9.28895 302.775 10.4287 302.775C12.617 302.775 13.734 303.816 13.734 305.615C13.734 307.414 12.2181 308.953 10.9986 310.198L9.82464 311.398H13.8138V312.778H7.47675V311.749V311.737Z" fill="#BCC4FF"/>
<path d="M19.4441 304.336H14.9193V302.933H21.3817V303.997L17.7915 312.778H15.8083L19.4441 304.336Z" fill="#BCC4FF"/>
<path d="M318.128 123.328L316.441 123.656V122.626L318.982 121.495H319.928V131.476H318.128V123.328Z" fill="#BCC4FF"/>
<path d="M322.14 130.865L322.436 129.575C322.937 129.903 324.009 130.14 324.761 130.14C326.106 130.14 326.881 129.586 326.881 128.488C326.881 127.391 326.083 126.994 324.818 126.983L323.781 126.961V125.67H324.715C325.867 125.625 326.63 125.116 326.63 124.177C326.63 123.181 325.946 122.819 324.852 122.819C324.111 122.819 323.325 123.079 322.732 123.351L322.527 122.038C323.143 121.687 324.339 121.415 325.319 121.415C327.166 121.415 328.42 122.287 328.42 123.871C328.42 125.048 327.724 125.806 326.63 126.18C327.873 126.429 328.75 127.13 328.75 128.613C328.75 130.435 327.337 131.578 325.069 131.578C323.883 131.578 322.721 131.249 322.14 130.887V130.865Z" fill="#BCC4FF"/>
<path d="M305.647 88.8463L303.961 89.1745V88.1447L306.502 87.0131H307.448V96.9943H305.647V88.8463Z" fill="#BCC4FF"/>
<path d="M309.899 95.8852L311.813 93.8935C313.192 92.4563 314.298 91.2228 314.298 89.9893C314.298 88.7558 313.637 88.3144 312.372 88.3144C311.677 88.3144 310.856 88.6539 310.309 88.9821L310.024 87.6807C310.696 87.2846 311.699 86.9225 312.851 86.9225C315.039 86.9225 316.156 87.9636 316.156 89.7629C316.156 91.5623 314.64 93.1013 313.42 94.3462L312.246 95.5457H316.236V96.9263H309.887V95.8965L309.899 95.8852Z" fill="#BCC4FF"/>
<path d="M289.201 57.9521L287.514 58.2802V57.2504L290.056 56.1188H291.002V66.1H289.201V57.9521Z" fill="#BCC4FF"/>
<path d="M294.934 57.9521L293.258 58.2802V57.2504L295.8 56.1188H296.746V66.1H294.945V57.9521H294.934Z" fill="#BCC4FF"/>
<path d="M261.516 31.7316L259.829 32.0598V31.03L262.371 29.8983H263.317V39.8795H261.516V31.7316Z" fill="#BCC4FF"/>
<path d="M265.802 35.2285V34.6174C265.802 31.0753 267.648 29.7965 269.7 29.7965C271.751 29.7965 273.529 31.0866 273.529 34.5608V35.1832C273.529 38.6574 271.763 39.9701 269.677 39.9701C267.591 39.9701 265.813 38.5895 265.813 35.2171L265.802 35.2285ZM271.683 35.3077V34.5608C271.683 32.2069 270.999 31.1658 269.688 31.1658C268.377 31.1658 267.682 32.1617 267.682 34.4589V35.2171C267.682 37.5144 268.343 38.6121 269.677 38.6121C271.01 38.6121 271.683 37.6615 271.683 35.2964V35.3077Z" fill="#BCC4FF"/>
<path d="M108.835 17.4048V16.7032C108.835 13.0027 110.738 11.6221 113.109 11.6221C114.112 11.6221 115.012 11.9389 115.434 12.1766L115.092 13.478C114.705 13.2743 113.861 13.048 113.212 13.048C111.73 13.048 110.75 13.7722 110.613 16.3071C111.114 15.8771 111.912 15.4358 112.938 15.4358C114.659 15.4358 115.901 16.5108 115.901 18.3894C115.901 20.2679 114.716 21.7843 112.494 21.7843C110.089 21.7843 108.835 20.1208 108.835 17.4048ZM114.18 18.5365C114.18 17.2011 113.428 16.7145 112.414 16.7145C111.684 16.7145 110.966 17.2125 110.624 17.6764V17.7556C110.624 19.4418 111.149 20.4716 112.459 20.4716C113.531 20.4716 114.18 19.77 114.18 18.5365Z" fill="#BCC4FF"/>
<path d="M232.498 15.9789V16.6353C232.498 20.4603 230.72 21.7957 228.304 21.7957C227.301 21.7957 226.355 21.4562 225.887 21.1732L226.184 19.8832C226.594 20.0982 227.495 20.3698 228.201 20.3698C229.649 20.3698 230.629 19.77 230.731 17.2577C230.23 17.7217 229.432 18.1404 228.395 18.1404C226.685 18.1404 225.432 16.9748 225.432 15.0736C225.432 13.1724 226.549 11.6221 228.771 11.6221C231.165 11.6221 232.498 13.1838 232.498 15.9789ZM227.141 14.9378C227.141 16.2732 227.893 16.8503 228.919 16.8503C229.649 16.8503 230.378 16.3637 230.72 15.8884V15.6394C230.72 13.9985 230.15 12.9348 228.805 12.9348C227.722 12.9348 227.141 13.7269 227.141 14.9265V14.9378Z" fill="#BCC4FF"/>
<path d="M154.585 1.57297H150.06V0.18103H156.522V1.24479L152.932 10.0264H150.949L154.585 1.58428V1.57297Z" fill="#BCC4FF"/>
<path d="M187.421 7.50288C187.421 6.26937 188.378 5.38668 189.472 4.95665C188.435 4.49267 187.706 3.81368 187.706 2.59149C187.706 1.05244 189.028 0 191.125 0C193.222 0 194.499 0.905325 194.499 2.45569C194.499 3.54208 193.701 4.31161 192.675 4.80954C193.838 5.20562 194.875 5.91856 194.875 7.32181C194.875 8.98535 193.484 10.1849 191.114 10.1849C188.743 10.1849 187.409 9.10983 187.409 7.5142L187.421 7.50288ZM193.074 7.43498C193.074 6.41649 192.31 5.90724 190.829 5.52248C189.94 5.81671 189.096 6.48439 189.096 7.36708C189.096 8.31767 189.86 8.8835 191.079 8.8835C192.299 8.8835 193.074 8.28372 193.074 7.43498ZM192.8 2.59149C192.8 1.8446 192.265 1.29009 191.148 1.29009C190.122 1.29009 189.495 1.76538 189.495 2.55754C189.495 3.39497 190.122 3.92685 191.364 4.23239C192.128 3.91553 192.8 3.39497 192.8 2.60281V2.59149Z" fill="#BCC4FF"/>
<path d="M332.42 173.937L330.745 174.282V173.199L333.286 172.009H334.232V182.502H332.431V173.937H332.42Z" fill="#BCC4FF"/>
<path d="M340.854 180.48H336.272V179.398L341.31 172.033H342.53V179.1H343.989V180.48H342.53V182.61H340.854V180.48ZM340.866 179.1V175.186L338.21 179.1H340.866Z" fill="#BCC4FF"/>
</g>
<defs>
<clipPath id="clip0_3_436">
<rect width="344" height="448" fill="white"/>
</clipPath>
</defs>
</svg>
