<svg width="18" height="21" viewBox="0 0 18 21" fill="none" xmlns="http://www.w3.org/2000/svg">
<path d="M11.1274 0.881678C9.96374 -0.293891 8.03632 -0.293892 6.87267 0.881671L1.18902 6.62354C0.862604 6.9533 0.643257 7.37019 0.558619 7.82168C-0.131642 11.5038 -0.182594 15.2733 0.407904 18.972L0.616966 20.2815C0.682999 20.6951 1.04718 21 1.47514 21H5.44662C5.7737 21 6.03885 20.7406 6.03885 20.4207V12.3103H11.9612V20.4207C11.9612 20.7406 12.2264 21 12.5534 21H16.5249C16.9528 21 17.317 20.6951 17.383 20.2815L17.5921 18.972C18.1826 15.2733 18.1316 11.5038 17.4414 7.82167C17.3567 7.37019 17.1374 6.9533 16.811 6.62354L11.1274 0.881678Z" fill="#263FE9"/>
</svg>
