<svg width="17" height="20" viewBox="0 0 17 20" fill="none" xmlns="http://www.w3.org/2000/svg">
<path fill-rule="evenodd" clip-rule="evenodd" d="M3.1875 0C1.42709 0 0 1.34315 0 3V17C0 18.6569 1.42709 20 3.1875 20H13.8125C15.5729 20 17 18.6569 17 17V3C17 1.34315 15.5729 0 13.8125 0H3.1875ZM4.25 7C5.4236 7 6.375 6.10457 6.375 5C6.375 3.89543 5.4236 3 4.25 3C3.0764 3 2.125 3.89543 2.125 5C2.125 6.10457 3.0764 7 4.25 7ZM14.875 10H2.125V12H14.875V10ZM2.125 14H7.4375C8.0243 14 8.5 14.4477 8.5 15C8.5 15.5523 8.0243 16 7.4375 16H2.125V14Z" fill="#C2C2C2"/>
</svg>
