<svg width="21" height="21" viewBox="0 0 21 21" fill="none" xmlns="http://www.w3.org/2000/svg">
<path d="M5.05553 0.520508C2.02221 0.520508 0 3.55383 0 6.58715C0 8.72058 1.01111 11.6427 2.02221 12.6538C3.03332 13.6649 4.04443 20.7426 6.06664 20.7426C10.6571 20.7426 8.08885 13.6649 10.1111 13.6649C12.1333 13.6649 9.56507 20.7426 14.1555 20.7426C16.1777 20.7426 17.1888 13.6649 18.1999 12.6538C19.211 11.6427 20.2221 8.72058 20.2221 6.58715C20.2221 3.55383 18.1999 0.520508 15.1666 0.520508C12.1333 0.520508 12.1333 1.53161 10.1111 1.53161C8.08885 1.53161 8.08885 0.520508 5.05553 0.520508Z" fill="#C2C2C2"/>
</svg>
