<svg width="21" height="20" viewBox="0 0 21 20" fill="none" xmlns="http://www.w3.org/2000/svg">
<path d="M10.5 0C7.69404 0 5.41935 2.03766 5.41935 4.55123C5.41935 7.06481 7.69404 9.10246 10.5 9.10246C13.306 9.10246 15.5806 7.06481 15.5806 4.55123C15.5806 2.03766 13.306 0 10.5 0Z" fill="#C2C2C2"/>
<path d="M5.08065 11.5298C2.27468 11.5298 0 13.5674 0 16.081V17.5232C0 18.4374 0.739584 19.2168 1.74676 19.3641C7.54388 20.212 13.4561 20.212 19.2532 19.3641C20.2604 19.2168 21 18.4374 21 17.5232V16.081C21 13.5674 18.7253 11.5298 15.9194 11.5298H15.4575C15.2076 11.5298 14.9592 11.5652 14.7216 11.6347L13.5489 11.9777C11.5678 12.5572 9.43221 12.5572 7.45105 11.9777L6.27842 11.6347C6.04081 11.5652 5.79242 11.5298 5.54247 11.5298H5.08065Z" fill="#C2C2C2"/>
</svg>
