<svg width="312" height="117" viewBox="0 0 312 117" fill="none" xmlns="http://www.w3.org/2000/svg">
<path d="M26.6221 59.868C26.6221 59.868 20.2525 66.5612 11.9982 66.5612C3.74385 66.5612 -6.3677 20.4191 8.25622 11.117C8.25622 11.117 20.9954 15.5836 22.1235 23.3969C22.1235 23.3969 16.4968 57.6278 33.5557 64.7035C33.5557 64.7035 51.5502 62.8458 55.4847 56.1389C55.4847 56.1389 54.9207 34.7344 56.6128 30.0901C56.6128 30.0901 49.6792 4.77892 40.5031 4.60135C40.5031 4.60135 21.0092 12.0458 21.3118 32.5079" fill="#D9D9D9" fill-opacity="0.5"/>
<path d="M26.6221 59.868C26.6221 59.868 20.2525 66.5612 11.9982 66.5612C3.74385 66.5612 -6.3677 20.4191 8.25622 11.117C8.25622 11.117 20.9954 15.5836 22.1235 23.3969C22.1235 23.3969 16.4968 57.6278 33.5557 64.7035C33.5557 64.7035 51.5502 62.8458 55.4847 56.1389C55.4847 56.1389 54.9207 34.7344 56.6128 30.0901C56.6128 30.0901 49.6792 4.77892 40.5031 4.60135C40.5031 4.60135 21.0092 12.0458 21.3118 32.5079" stroke="white" stroke-width="1.5" stroke-miterlimit="10"/>
<path d="M81.7199 4.60135C81.7199 4.60135 56.9982 9.47782 55.5812 38.4908C54.1642 67.5037 66.7245 66.7524 76.8361 67.8725C86.9476 68.9926 101.764 68.6101 102.328 60.0592V36.4691C102.328 36.4691 101.393 6.28148 81.7199 4.60135Z" fill="#D9D9D9" fill-opacity="0.5" stroke="white" stroke-width="1.5" stroke-miterlimit="10"/>
<path d="M129.691 0.886374C129.691 0.886374 106.455 2.5665 104.763 34.0108C103.085 65.4552 101.2 70.8507 129.691 71.3971C158.183 71.9435 156.49 64.3214 156.49 64.3214C156.49 64.3214 156.683 36.5925 150.3 21.1572C143.916 5.72186 136.818 0.326331 129.691 0.886374Z" fill="#D9D9D9" fill-opacity="0.5" stroke="white" stroke-width="1.5" stroke-miterlimit="10"/>
<path d="M184.225 0.844741C184.225 0.844741 167.358 0.339336 161.553 24.148C155.734 47.943 156.16 61.343 158.389 68.3231C160.617 75.3168 208.217 77.1745 209.345 60.6191C210.474 44.0637 207.103 26.9345 207.103 26.9345C207.103 26.9345 203.719 1.3638 184.225 0.844741Z" fill="#D9D9D9" fill-opacity="0.5" stroke="white" stroke-width="1.5" stroke-miterlimit="10"/>
<path d="M255.556 52.6561C255.556 52.6561 240.588 71.9844 214.394 62.8188C214.394 62.8188 205.26 63.5565 209.579 33.0956C213.899 2.62107 225.139 1.88345 231.99 2.86694C238.841 3.85043 254.304 5.09346 255.556 52.6561Z" fill="#D9D9D9" fill-opacity="0.5" stroke="white" stroke-width="1.5" stroke-miterlimit="10"/>
<path d="M273.262 0.844757C273.262 0.844757 292.467 7.61991 290.224 35.5811C287.982 63.5422 279.741 62.3129 279.741 62.3129C279.741 62.3129 255.914 60.824 255.542 52.6555C255.171 44.4871 250.562 7.2511 273.262 0.844757Z" fill="#D9D9D9" fill-opacity="0.5" stroke="white" stroke-width="1.5" stroke-miterlimit="10"/>
<path d="M303.211 7.56548C303.211 7.56548 316.927 21.6895 307.957 48.1891C298.974 74.7023 293.086 58.666 284.927 58.2562C284.927 58.2562 293.98 41.2637 288.491 18.22C288.477 18.22 298.712 4.35548 303.211 7.56548Z" fill="#D9D9D9" fill-opacity="0.5" stroke="white" stroke-width="1.5" stroke-miterlimit="10"/>
<path d="M22.0409 63.4469L20.9266 85.0837C14.9972 91.613 8.8615 88.7854 6.88046 83.5538C4.89942 78.3222 6.88046 63.4333 6.88046 63.4333C6.88046 63.4333 8.80647 66.8891 11.9981 66.5613C15.1898 66.2335 22.0409 63.4469 22.0409 63.4469Z" fill="#D9D9D9" fill-opacity="0.5" stroke="white" stroke-width="1.5" stroke-miterlimit="10"/>
<path d="M22.0411 63.4468L20.9268 85.0835C20.9268 85.0835 22.6877 96.8444 28.7271 96.5303C34.7665 96.2161 44.6304 88.8672 44.6304 88.8672C44.6304 78.2811 48.9502 60.9607 48.9502 60.9607L33.7072 65.5367L27.6128 60.9607L22.0411 63.4468Z" fill="#D9D9D9" fill-opacity="0.5" stroke="white" stroke-width="1.5" stroke-miterlimit="10"/>
<path d="M74.2356 68.3231L75.1161 88.8807C75.1161 88.8807 63.4912 107.526 53.3935 103.824C43.2957 100.123 44.6163 88.8807 44.6163 88.8807C44.6163 88.8807 47.0376 62.2172 49.9817 60.4961C52.9257 58.775 57.1354 56.0021 57.1354 56.0021C57.1354 56.0021 59.763 67.3532 74.2356 68.3231Z" fill="#D9D9D9" fill-opacity="0.5" stroke="white" stroke-width="1.5" stroke-miterlimit="10"/>
<path d="M113.017 69.5797V90.315C113.017 90.315 105.616 113.181 87.4015 110.791C87.4015 110.791 74.456 103.346 75.1163 88.8807L74.2358 68.3231C74.2358 68.3231 100.333 72.0248 103.704 58.6931C103.704 58.6931 106.455 67.6811 113.017 69.5797Z" fill="#D9D9D9" fill-opacity="0.5" stroke="white" stroke-width="1.5" stroke-miterlimit="10"/>
<path d="M156.504 66.5609V91.7219C156.504 91.7219 150.423 115.681 134.176 115.927C134.176 115.927 113.018 111.064 113.018 90.3286V69.5797C113.018 69.5797 140.972 75.0026 156.504 66.5609Z" fill="#D9D9D9" fill-opacity="0.5" stroke="white" stroke-width="1.5" stroke-miterlimit="10"/>
<path d="M198.656 70.7544V91.2438C198.656 91.2438 194.859 115.681 177.896 115.927C160.934 116.159 156.504 91.7219 156.504 91.7219V66.5609C156.504 66.5609 165.694 78.2945 198.656 70.7544Z" fill="#D9D9D9" fill-opacity="0.5" stroke="white" stroke-width="1.5" stroke-miterlimit="10"/>
<path d="M235.869 65.277V90.274C235.869 90.274 236.337 109.725 221.067 112.293C205.796 114.861 198.656 91.2439 198.656 91.2439L199.316 71.4375C199.316 71.4375 208.479 66.7113 210.006 60.8786C210.019 60.8786 225.084 66.8888 235.869 65.277Z" fill="#D9D9D9" fill-opacity="0.5" stroke="white" stroke-width="1.5" stroke-miterlimit="10"/>
<path d="M235.869 86.3127C237.135 93.0468 254.909 101.803 254.909 101.803C254.909 101.803 263.026 104.685 265.035 90.2603C267.043 75.8358 263.604 59.376 263.604 59.376C263.604 59.376 257.372 58.1876 255.528 53.7209C255.528 53.7209 242.143 64.1022 235.842 65.2633L235.869 86.3127Z" fill="#D9D9D9" fill-opacity="0.5" stroke="white" stroke-width="1.5" stroke-miterlimit="10"/>
<path d="M265.585 84.2781C265.585 84.2781 273.385 94.4272 280.209 94.4272C287.032 94.4272 289.192 85.5075 289.192 85.5075L290.417 61.2481C290.417 61.2481 287.995 57.8878 284.928 58.2566C284.928 58.2566 283.098 62.4364 280.773 62.3135L263.783 60.128C263.769 60.1416 266.232 77.5849 265.585 84.2781Z" fill="#D9D9D9" fill-opacity="0.5" stroke="white" stroke-width="1.5" stroke-miterlimit="10"/>
<path d="M290.417 81.5867C290.417 81.5867 292.425 86.4086 297.956 86.5861C303.486 86.7637 304.105 84.264 304.545 78.5543C304.999 72.8446 304.545 56.576 304.545 56.576C304.545 56.576 301.711 63.4468 297.57 63.4468C293.429 63.4468 290.403 61.2613 290.403 61.2613V81.5867H290.417Z" fill="#D9D9D9" fill-opacity="0.5" stroke="white" stroke-width="1.5" stroke-miterlimit="10"/>
</svg>
