<svg width="141" height="169" viewBox="0 0 141 169" fill="none" xmlns="http://www.w3.org/2000/svg">
<g clip-path="url(#clip0_228_111)">
<path d="M104.121 37.0496C108.934 21.6565 97.2776 2.31291 82.4603 0.912239C67.643 -0.488432 55.7291 5.74635 51.0451 16.1832C46.3611 26.6128 46.6185 36.9275 47.8843 41.6323" stroke="#0021FF" stroke-width="2" stroke-linecap="round" stroke-linejoin="round"/>
<path d="M66.2056 19.8394C63.4667 23.8043 57.331 27.2162 54.0987 28.8252C51.9175 29.9098 50.1512 31.7271 49.2215 33.9897C49.0857 34.3273 48.9641 34.6721 48.8711 35.0313C48.1059 37.8685 47.1119 45.8487 48.4135 49.2247" stroke="#0021FF" stroke-width="2" stroke-linecap="round" stroke-linejoin="round"/>
<path d="M73.314 18.7617C72.1555 24.1274 67.9077 28.4371 63.6885 30.8075" stroke="#0021FF" stroke-width="2" stroke-linecap="round" stroke-linejoin="round"/>
<path d="M81.3161 18.7617C81.3161 22.6477 78.0481 28.7388 73.314 30.4268" stroke="#0021FF" stroke-width="2" stroke-linecap="round" stroke-linejoin="round"/>
<path d="M85.993 22.1377C85.8142 24.4219 87.4089 28.0564 89.4613 30.8147C92.1144 34.3846 93.9236 38.5076 94.6102 42.9107C94.6173 42.9754 94.6245 43.0041 94.6245 43.0041C96.2263 38.3998 101.49 35.304 104.121 37.0423C107.461 39.2474 109.52 44.5413 107.232 48.6858C104.944 52.8304 98.6005 55.8185 95.4683 56.1273C93.659 60.3437 90.7628 64.4954 88.3529 67.1459C86.3791 69.3152 85.4209 72.2243 85.7713 75.1405C85.7713 75.1908 85.7856 75.2339 85.7856 75.2842C86.2075 78.8182 88.4816 81.8422 91.7282 83.2644C92.9725 83.8103 94.367 84.3562 95.8545 84.8231" stroke="#0021FF" stroke-width="2" stroke-linecap="round" stroke-linejoin="round"/>
<path d="M55.7364 55.4521L67.9077 60.9974C68.8517 61.3996 69.4596 62.3262 69.4596 63.3534C69.4596 64.5745 68.6014 65.6232 67.4143 65.8602L53.3908 68.6903C52.9046 68.7909 52.404 68.7406 51.9463 68.561" stroke="#0021FF" stroke-width="2" stroke-linecap="round" stroke-linejoin="round"/>
<path d="M43.4506 50.3236L42.0347 49.555C41.527 49.3396 40.9692 49.2965 40.4328 49.4258L27.2747 52.6509C26.2377 52.9023 25.4726 53.7786 25.351 54.8417L25.2866 55.4163" stroke="#0021FF" stroke-width="2" stroke-linecap="round" stroke-linejoin="round"/>
<path d="M38.0514 64.1795C40.3684 63.5259 42.3636 61.3351 44.0728 59.0294C46.3897 55.9048 47.1406 51.8895 46.3468 49.7562C45.553 47.6229 43.2218 47.8599 43.4363 49.3611C43.6508 50.8624 42.8571 53.9008 41.4054 56.0915C39.9537 58.2823 36.1206 60.4444 31.7727 61.3207C31.7727 61.3207 31.4366 59.7836 29.327 59.3526C27.2174 58.9216 24.9719 58.9575 24.9719 58.9575" stroke="#0021FF" stroke-width="2" stroke-linecap="round" stroke-linejoin="round"/>
<path d="M47.1478 49.4544C48.5995 48.9444 50.4302 50.4098 49.4863 55.4594C48.5423 60.509 45.5102 64.4452 42.3708 65.6591" stroke="#0021FF" stroke-width="2" stroke-linecap="round" stroke-linejoin="round"/>
<path d="M50.2442 51.1496C51.6172 50.6612 53.3549 52.0547 52.461 56.8385C51.5671 61.6223 48.6924 65.3503 45.7246 66.4924" stroke="#0021FF" stroke-width="2" stroke-linecap="round" stroke-linejoin="round"/>
<path d="M53.3122 52.931C54.4564 52.5287 55.9653 54.8057 55.2215 58.7779C54.4778 62.75 51.9391 67.8643 49.2074 69.8468C45.7176 72.3823 43.4435 73.5244 41.2338 74.5731C38.7595 80.5062 35.8275 88.6589 32.5022 100.518C31.6441 103.571 30.2925 110.172 29.7704 115.954C29.5631 118.288 28.9481 122.821 27.4749 128.503C26.0018 134.184 17.5133 144.441 11.2918 144.269C5.07739 144.104 0.708008 139.378 0.708008 129.25C0.708008 119.847 8.45275 103.298 12.9723 95.8418C19.6444 84.8303 24.0924 74.4654 24.5858 72.8851C25.0793 71.3049 25.8659 66.3918 24.1925 64.1866C22.5191 61.9814 21.568 58.2822 22.3332 54.7339C23.1055 51.1855 26.1162 48.4847 28.5547 46.9979C30.9933 45.511 32.6238 45.2596 33.6392 46.416C34.6547 47.5725 34.2328 49.9716 32.8598 51.2861" stroke="#0021FF" stroke-width="2" stroke-linecap="round" stroke-linejoin="round"/>
<path d="M59.1974 65.1636L63.1091 64.3376C64.1246 64.1221 64.3248 62.7573 63.4166 62.2545L63.2665 62.1755C63.0233 62.0391 62.7373 62.0031 62.4655 62.0678L58.704 62.9728C57.7314 63.2099 57.5312 64.5028 58.3893 65.0272C58.6325 65.1708 58.9185 65.2211 59.1974 65.1636V65.1636Z" stroke="#0021FF" stroke-width="2" stroke-linecap="round" stroke-linejoin="round"/>
<path d="M57.8531 67.7998C60.8709 69.4806 61.9579 69.9762 62.058 73.46C62.0866 74.5158 62.058 75.6651 62.0151 76.7641C61.8435 80.5782 59.219 83.868 55.529 84.8018C55.4932 84.809 55.4575 84.8234 55.4146 84.8305" stroke="#0021FF" stroke-width="2" stroke-linecap="round" stroke-linejoin="round"/>
<path d="M53.9199 86.9853C55.5003 93.2991 59.7267 97.4149 69.4595 98.4708C81.3233 99.7565 93.0298 96.4237 99.3943 86.1377" stroke="#0021FF" stroke-width="2" stroke-linecap="round" stroke-linejoin="round"/>
<path d="M37.5867 84.8305C43.279 83.6309 50.1299 83.2789 53.5481 83.7889" stroke="#0021FF" stroke-width="2" stroke-linecap="round" stroke-linejoin="round"/>
<path d="M139.97 151.89C123.229 154.368 115.177 154.799 115.177 154.799" stroke="#0021FF" stroke-width="2" stroke-linecap="round" stroke-linejoin="round"/>
<path d="M101.761 86.2383C106.052 87.8544 118.502 94.434 126.555 101.545C134.099 108.218 140.986 136.296 140.228 149.462" stroke="#0021FF" stroke-width="2" stroke-linecap="round" stroke-linejoin="round"/>
<path d="M112.71 143.486C112.924 150.174 112.281 162.456 111.744 166.235" stroke="#0021FF" stroke-width="2" stroke-linecap="round" stroke-linejoin="round"/>
<path d="M37.1289 140.283C36.9143 146.97 36.8071 155.819 37.086 163.031" stroke="#0021FF" stroke-width="2" stroke-linecap="round" stroke-linejoin="round"/>
<path d="M133.641 152.795C133.098 159.547 132.883 168.282 132.883 168.282" stroke="#0021FF" stroke-width="2" stroke-linecap="round" stroke-linejoin="round"/>
<path d="M7.93774 146.309C16.6264 148.521 23.1769 148.766 27.6035 148.119C31.5438 147.545 34.9835 146.568 34.9835 146.568" stroke="#0021FF" stroke-width="2" stroke-linecap="round" stroke-linejoin="round"/>
<path d="M59.7268 57.2696C59.877 53.5991 60.3633 49.5766 67.0854 49.7778C73.8075 49.9861 76.4606 52.4857 76.525 56.1849C76.5893 59.8841 76.668 64.984 68.4441 65.4006" stroke="#0021FF" stroke-width="2" stroke-linecap="round" stroke-linejoin="round"/>
<path d="M62.7517 53.4841H73.0637" stroke="#0021FF" stroke-width="2" stroke-linecap="round" stroke-linejoin="round"/>
<path d="M56.6232 37.5955C57.1667 36.712 58.3824 36.2235 59.3979 36.7551C60.4133 37.2866 60.3204 39.4558 59.3979 39.9371C58.4754 40.4184 57.4456 40.1526 57.0022 39.7575C56.3586 39.1901 56.3372 38.0624 56.6232 37.5883V37.5955Z" fill="#0021FF"/>
<path d="M74.401 39.4343C74.9445 38.5508 76.1602 38.0624 77.1757 38.5939C78.1912 39.1255 78.0982 41.2947 77.1757 41.776C76.2532 42.2572 75.2234 41.9914 74.7801 41.5964C74.1365 41.0289 74.115 39.9012 74.401 39.4271V39.4343Z" fill="#0021FF"/>
<path d="M63.9959 42.9827C64.6181 42.8894 65.2617 43.3634 65.7623 43.9453C66.2629 44.5271 66.3058 45.2525 65.7623 45.6907C65.2188 46.1289 64.2462 45.8775 63.6884 45.0802C63.1306 44.2829 63.1306 43.112 63.9959 42.9827Z" fill="#0021FF"/>
</g>
<defs>
<clipPath id="clip0_228_111">
<rect width="141" height="169" fill="white"/>
</clipPath>
</defs>
</svg>
