<svg width="151" height="169" viewBox="0 0 151 169" fill="none" xmlns="http://www.w3.org/2000/svg">
<g clip-path="url(#clip0_228_139)">
<path d="M114.201 37.0496C119.003 21.6565 107.372 2.31291 92.5867 0.912239C77.8013 -0.488432 65.9132 5.74635 61.2392 16.1832C56.5653 26.6128 56.8222 36.9275 58.0852 41.6323" stroke="#0021FF" stroke-width="2" stroke-linecap="round" stroke-linejoin="round"/>
<path d="M76.3741 19.8394C73.6411 23.8043 67.5186 27.2162 64.2933 28.8252C62.1169 29.9098 60.3543 31.7271 59.4267 33.9897C59.2911 34.3273 59.1698 34.6721 59.077 35.0313C58.3135 37.8685 57.3216 45.8487 58.6203 49.2247" stroke="#0021FF" stroke-width="2" stroke-linecap="round" stroke-linejoin="round"/>
<path d="M83.46 18.7617C82.304 24.1274 78.0653 28.4371 73.8552 30.8075" stroke="#0021FF" stroke-width="2" stroke-linecap="round" stroke-linejoin="round"/>
<path d="M91.4449 18.7617C91.4449 22.6477 88.1838 28.7388 83.46 30.4268" stroke="#0021FF" stroke-width="2" stroke-linecap="round" stroke-linejoin="round"/>
<path d="M96.1117 22.1377C95.9333 24.4219 97.5246 28.0564 99.5726 30.8147C102.22 34.3846 104.025 38.5076 104.71 42.9107C104.717 42.9754 104.725 43.0041 104.725 43.0041C106.323 38.3998 111.575 35.304 114.201 37.0423C117.533 39.2474 119.588 44.5413 117.305 48.6858C115.022 52.8304 108.692 55.8185 105.567 56.1273C103.761 60.3437 100.871 64.4954 98.4665 67.1459C96.4971 69.3152 95.5409 72.2243 95.8905 75.1405C95.8905 75.1908 95.9048 75.2339 95.9048 75.2842C96.3258 78.8182 98.595 81.8422 101.835 83.2644C103.076 83.8103 104.468 84.3562 105.952 84.8231" stroke="#0021FF" stroke-width="2" stroke-linecap="round" stroke-linejoin="round"/>
<path d="M65.9201 55.4521L78.0652 60.9974C79.0071 61.3996 79.6137 62.3262 79.6137 63.3534C79.6137 64.5745 78.7574 65.6232 77.5728 65.8602L63.5796 68.6903C63.0944 68.7909 62.5949 68.7406 62.1382 68.561" stroke="#0021FF" stroke-width="2" stroke-linecap="round" stroke-linejoin="round"/>
<path d="M53.661 50.3236L52.2481 49.555C51.7415 49.3396 51.1849 49.2965 50.6497 49.4258L37.5199 52.6509C36.4852 52.9023 35.7217 53.7786 35.6004 54.8417L35.5361 55.4163" stroke="#0021FF" stroke-width="2" stroke-linecap="round" stroke-linejoin="round"/>
<path d="M48.2735 64.1795C50.5855 63.5259 52.5764 61.3351 54.2818 59.0294C56.5938 55.9048 57.343 51.8895 56.551 49.7562C55.7589 47.6229 53.4326 47.8599 53.6467 49.3611C53.8608 50.8624 53.0687 53.9008 51.6202 56.0915C50.1716 58.2823 46.3468 60.4444 42.0083 61.3207C42.0083 61.3207 41.6729 59.7836 39.5679 59.3526C37.4628 58.9216 35.2222 58.9575 35.2222 58.9575" stroke="#0021FF" stroke-width="2" stroke-linecap="round" stroke-linejoin="round"/>
<path d="M57.3573 49.4544C58.8058 48.9444 60.6326 50.4098 59.6907 55.4594C58.7487 60.509 55.7232 64.4452 52.5906 65.6591" stroke="#0021FF" stroke-width="2" stroke-linecap="round" stroke-linejoin="round"/>
<path d="M60.44 51.1496C61.81 50.6612 63.544 52.0547 62.6521 56.8385C61.7601 61.6152 58.8915 65.3503 55.9302 66.4924" stroke="#0021FF" stroke-width="2" stroke-linecap="round" stroke-linejoin="round"/>
<path d="M63.5012 52.931C64.6429 52.5287 66.1486 54.8057 65.4065 58.7779C64.6643 62.75 62.1311 67.8643 59.4053 69.8468C55.923 72.3823 53.6538 73.5244 51.4489 74.5731C48.9799 80.5062 46.0543 88.6589 42.7361 100.518C41.8798 103.571 40.5312 110.172 40.0103 115.954C39.8033 118.288 39.1896 122.821 37.7197 128.503C36.2497 134.184 27.7796 144.441 21.5714 144.269C15.3705 144.104 11.0105 139.378 11.0105 129.25C11.0105 119.847 18.7385 103.298 23.2483 95.8418C29.906 84.8303 34.3445 74.4654 34.8368 72.8851C35.3292 71.3049 36.1141 66.3918 34.4444 64.1866C32.7746 61.9814 31.8255 58.2822 32.5891 54.7339C33.3526 51.1855 36.3639 48.4847 38.7972 46.9979C41.2305 45.511 42.8574 45.2596 43.8707 46.416C44.884 47.5725 44.463 49.9716 43.0929 51.2861" stroke="#0021FF" stroke-width="2" stroke-linecap="round" stroke-linejoin="round"/>
<path d="M69.374 65.1636L73.2772 64.3376C74.2905 64.1221 74.4903 62.7573 73.5841 62.2545L73.4342 62.1755C73.1916 62.0391 72.9062 62.0031 72.635 62.0678L68.8816 62.9728C67.9111 63.2099 67.7113 64.5028 68.5676 65.0272C68.8102 65.1708 69.0957 65.2211 69.374 65.1636V65.1636Z" stroke="#0021FF" stroke-width="2" stroke-linecap="round" stroke-linejoin="round"/>
<path d="M68.0324 67.7998C71.0437 69.4806 72.1283 69.9762 72.2283 73.46C72.2568 74.5158 72.2283 75.6651 72.1854 76.7641C72.0142 80.5782 69.3953 83.868 65.7133 84.8018C65.6776 84.809 65.6419 84.8234 65.5991 84.8305" stroke="#0021FF" stroke-width="2" stroke-linecap="round" stroke-linejoin="round"/>
<path d="M64.1077 86.9853C65.6847 93.2991 69.9019 97.4149 79.6137 98.4708C91.4519 99.7565 103.133 96.4237 109.484 86.1377" stroke="#0021FF" stroke-width="2" stroke-linecap="round" stroke-linejoin="round"/>
<path d="M47.8096 84.8305C53.4896 83.6309 60.3257 83.2789 63.7366 83.7889" stroke="#0021FF" stroke-width="2" stroke-linecap="round" stroke-linejoin="round"/>
<path d="M149.972 151.89C133.268 154.368 125.233 154.799 125.233 154.799" stroke="#0021FF" stroke-width="2" stroke-linecap="round" stroke-linejoin="round"/>
<path d="M111.846 86.2383C116.127 87.8544 128.551 94.434 136.586 101.545C144.114 108.218 150.986 136.296 150.229 149.462" stroke="#0021FF" stroke-width="2" stroke-linecap="round" stroke-linejoin="round"/>
<path d="M122.771 143.486C122.985 150.174 122.343 162.456 121.808 166.235" stroke="#0021FF" stroke-width="2" stroke-linecap="round" stroke-linejoin="round"/>
<path d="M47.353 140.283C47.139 146.97 47.0319 155.819 47.3102 163.031" stroke="#0021FF" stroke-width="2" stroke-linecap="round" stroke-linejoin="round"/>
<path d="M143.657 152.795C143.115 159.547 142.901 168.282 142.901 168.282" stroke="#0021FF" stroke-width="2" stroke-linecap="round" stroke-linejoin="round"/>
<path d="M18.2319 146.309C26.9019 148.521 33.4383 148.766 37.8553 148.119C41.7871 147.545 45.2194 146.568 45.2194 146.568" stroke="#0021FF" stroke-width="2" stroke-linecap="round" stroke-linejoin="round"/>
<path d="M69.9021 57.2696C70.052 53.5991 70.5372 49.5766 77.2448 49.7778C83.9524 49.9861 86.5998 52.4857 86.664 56.1849C86.7282 59.8841 86.8067 64.984 78.6006 65.4006" stroke="#0021FF" stroke-width="2" stroke-linecap="round" stroke-linejoin="round"/>
<path d="M72.9204 53.4841H83.2102" stroke="#0021FF" stroke-width="2" stroke-linecap="round" stroke-linejoin="round"/>
<path d="M66.8123 37.5955C67.3546 36.712 68.5677 36.2235 69.581 36.7551C70.5942 37.2866 70.5015 39.4558 69.581 39.9371C68.6605 40.4184 67.6329 40.1526 67.1905 39.7575C66.5483 39.1901 66.5269 38.0624 66.8123 37.5883V37.5955Z" fill="#0021FF"/>
<path d="M84.5518 39.4343C85.0941 38.5508 86.3072 38.0624 87.3205 38.5939C88.3338 39.1255 88.241 41.2947 87.3205 41.776C86.4 42.2572 85.3724 41.9914 84.93 41.5964C84.2878 41.0289 84.2664 39.9012 84.5518 39.4271V39.4343Z" fill="#0021FF"/>
<path d="M74.1619 42.9827C74.7827 42.8894 75.4249 43.3634 75.9245 43.9453C76.424 44.5271 76.4668 45.2525 75.9245 45.6907C75.3821 46.1289 74.4117 45.8775 73.8551 45.0802C73.2985 44.2829 73.2985 43.112 74.1619 42.9827Z" fill="#0021FF"/>
<path d="M17.5376 31.3547C19.093 35.9144 23.3772 39.1968 28.4254 39.1968C33.4736 39.1968 37.7714 35.9144 39.3131 31.3547" stroke="#0021FF" stroke-width="2" stroke-linecap="round" stroke-linejoin="round"/>
<path d="M39.327 23.8421C37.7717 19.2824 33.4875 16 28.4393 16C23.3911 16 19.0933 19.2824 17.5515 23.8421" stroke="#0021FF" stroke-width="2" stroke-linecap="round" stroke-linejoin="round"/>
<path d="M22.2312 23.7333L16.5418 25.2715L15 19.5444" stroke="#0021FF" stroke-width="1.5" stroke-linecap="round" stroke-linejoin="round"/>
<path d="M34.6333 31.4645L40.3364 29.9263L41.8645 35.6533" stroke="#0021FF" stroke-width="1.5" stroke-linecap="round" stroke-linejoin="round"/>
</g>
<defs>
<clipPath id="clip0_228_139">
<rect width="151" height="169" fill="white"/>
</clipPath>
</defs>
</svg>
