<svg width="156" height="170" viewBox="0 0 156 170" fill="none" xmlns="http://www.w3.org/2000/svg">
<path d="M118.507 37.3328C123.306 21.9397 111.681 2.59611 96.9038 1.19544C82.1262 -0.205229 70.2443 6.02956 65.5728 16.4664C60.9014 26.896 61.1581 37.2107 62.4205 41.9155" stroke="#0021FF" stroke-width="2" stroke-linecap="round" stroke-linejoin="round"/>
<path d="M80.6929 20.1221C77.9613 24.087 71.842 27.4989 68.6184 29.1079C66.4431 30.1925 64.6815 32.0098 63.7543 34.2724C63.6188 34.61 63.4976 34.9548 63.4049 35.314C62.6417 38.1512 61.8358 48.3438 62.599 51.8778C63.9469 58.1198 66.7783 64.0098 72.3698 68.0825C75.1584 70.1153 76.4636 70.2589 76.5634 73.7426C76.592 74.7985 76.5634 75.9478 76.5206 77.0468C76.3495 80.8609 73.732 84.1507 70.0519 85.0845C70.0162 85.0917 69.9806 85.106 69.9378 85.1132" stroke="#0021FF" stroke-width="2" stroke-linecap="round" stroke-linejoin="round"/>
<path d="M87.775 19.0449C86.6196 24.4106 82.3832 28.7203 78.1753 31.0907" stroke="#0021FF" stroke-width="2" stroke-linecap="round" stroke-linejoin="round"/>
<path d="M95.7629 19.0449C95.7629 22.9309 92.5036 29.022 87.7822 30.71" stroke="#0021FF" stroke-width="2" stroke-linecap="round" stroke-linejoin="round"/>
<path d="M100.427 22.4209C100.249 24.7051 101.839 28.3396 103.886 31.0979C106.532 34.6678 108.337 38.7908 109.021 43.1939C109.028 43.2586 109.036 43.2873 109.036 43.2873C110.633 38.6831 115.882 35.5872 118.507 37.3255C121.838 39.5306 123.892 44.8245 121.609 48.969C119.327 53.1136 113.001 56.1017 109.877 56.4105C108.073 60.6269 105.184 64.7786 102.781 67.4291C100.812 69.5984 99.8567 72.5075 100.206 75.4237C100.206 75.474 100.22 75.5171 100.22 75.5674C100.641 79.1014 102.909 82.1254 106.147 83.5476C107.388 84.0935 108.779 84.6394 110.262 85.1063" stroke="#0021FF" stroke-width="2" stroke-linecap="round" stroke-linejoin="round"/>
<path d="M68.4404 87.2685C70.0166 93.5823 74.2316 97.6981 83.9383 98.754C95.7703 100.04 107.445 96.7069 113.793 86.4209" stroke="#0021FF" stroke-width="2" stroke-linecap="round" stroke-linejoin="round"/>
<path d="M68.0692 84.0724C64.6601 83.5624 56.4797 85.0852 51.6941 88.2313C47.3579 91.0757 36.4673 101.908 31.2252 107.324C25.9832 112.739 22.5884 118.141 22.5884 118.141" stroke="#0021FF" stroke-width="2" stroke-linecap="round" stroke-linejoin="round"/>
<path d="M154.26 152.174C137.564 154.652 129.533 155.083 129.533 155.083" stroke="#0021FF" stroke-width="2" stroke-linecap="round" stroke-linejoin="round"/>
<path d="M116.153 86.5215C120.433 88.1376 132.849 94.7172 140.88 101.828C148.404 108.501 155.272 136.579 154.516 149.746" stroke="#0021FF" stroke-width="2" stroke-linecap="round" stroke-linejoin="round"/>
<path d="M127.072 143.77C127.286 150.457 126.645 162.74 126.11 166.518" stroke="#0021FF" stroke-width="2" stroke-linecap="round" stroke-linejoin="round"/>
<path d="M51.6871 140.565C51.4732 147.253 51.3662 156.102 51.6444 163.314" stroke="#0021FF" stroke-width="2" stroke-linecap="round" stroke-linejoin="round"/>
<path d="M147.948 153.078C147.406 159.83 147.192 168.565 147.192 168.565" stroke="#0021FF" stroke-width="2" stroke-linecap="round" stroke-linejoin="round"/>
<path d="M71.9492 40.2776C72.4912 39.3941 73.7036 38.9056 74.7164 39.4372C75.7291 39.9687 75.6364 42.138 74.7164 42.6192C73.7963 43.1005 72.7693 42.8347 72.3272 42.4397C71.6853 41.8722 71.6639 40.7445 71.9492 40.2704V40.2776Z" fill="#0021FF"/>
<path d="M89.6791 40.2776C90.2212 39.3941 91.4336 38.9056 92.4464 39.4372C93.4591 39.9687 93.3664 42.138 92.4464 42.6192C91.5263 43.1005 90.4993 42.8347 90.0571 42.4397C89.4153 41.8722 89.3939 40.7445 89.6791 40.2704V40.2776Z" fill="#0021FF"/>
<path d="M79.3022 46.4835C79.9227 46.3901 80.5645 46.8642 81.0638 47.446C81.563 48.0278 81.6058 48.7533 81.0638 49.1914C80.5218 49.6296 79.5518 49.3782 78.9955 48.5809C78.4392 47.7836 78.4392 46.6128 79.3022 46.4835Z" fill="#0021FF"/>
<path d="M81.6915 55.1397C84.3018 55.2475 85.9564 55.0463 89.0303 54.0264C90.1857 53.6385 92.8103 53.3871 93.8088 54.9027C95.2423 57.0719 93.5663 59.6937 91.9901 61.001C90.414 62.3083 87.0049 63.4791 83.4246 63.4791C79.8443 63.4791 76.7062 62.8326 74.6522 60.7999C73.2615 59.4279 72.263 57.8477 72.7337 55.6569C73.1402 53.7893 74.9945 53.6888 76.0572 54.0048C77.1199 54.3209 79.7231 55.0463 81.6915 55.1253V55.1397Z" stroke="#0021FF" stroke-width="2" stroke-linecap="round" stroke-linejoin="round"/>
<path d="M25.1699 57.6313C25.2698 57.3224 25.2198 42.6908 25.1913 35.6371C25.1842 33.5756 26.8388 31.9092 28.8786 31.9092H46.623C48.6628 31.9092 50.3103 33.5756 50.3103 35.6228V74.2238C50.3103 76.2781 48.6556 77.9374 46.623 77.9374H43.7274" stroke="#0021FF" stroke-width="2" stroke-linecap="round" stroke-linejoin="round"/>
<path d="M72.6194 56.9136C72.6194 56.9136 77.5761 59.0828 82.9751 58.9248C88.3811 58.7668 93.8086 54.9023 93.8086 54.9023" stroke="#0021FF" stroke-width="2" stroke-linecap="round" stroke-linejoin="round"/>
<path d="M50.3104 137.527L34.6343 153.071C34.6343 153.071 26.0259 145.314 23.4014 138.993" stroke="#0021FF" stroke-width="2" stroke-linecap="round" stroke-linejoin="round"/>
<path d="M18.8726 139.884C20.7697 135.035 20.7697 131.071 21.0621 121.812C21.3545 112.553 19.9709 95.5078 19.9709 95.5078" stroke="#0021FF" stroke-width="2" stroke-linecap="round" stroke-linejoin="round"/>
<path d="M17.6533 93.3954C19.9498 92.7633 23.1164 89.8973 25.1705 87.0169C26.4685 85.1996 28.3656 79.4677 31.1186 79.8986C33.8715 80.3296 36.9668 80.4733 40.5043 79.8268C41.8308 79.5826 43.0789 79.3743 43.0789 78.3328C43.0789 76.8818 41.9236 76.6232 39.6556 76.2856C36.6673 75.8403 33.5862 75.2944 29.4069 73.9512" stroke="#0021FF" stroke-width="2" stroke-linecap="round" stroke-linejoin="round"/>
<path d="M29.4064 73.9589C30.3621 72.8671 33.9709 71.33 39.2629 70.3172C44.2624 69.3618 45.4463 68.9811 45.318 66.8837C45.2324 65.5262 42.351 65.0952 39.0275 65.3322C35.704 65.5693 29.7202 67.1208 27.4023 67.8965" stroke="#0021FF" stroke-width="2" stroke-linecap="round" stroke-linejoin="round"/>
<path d="M26.875 62.2935C30.3768 60.7348 36.2964 59.2982 39.6199 59.0683C42.9434 58.8385 45.1971 59.0899 45.6465 59.9231C46.381 61.2878 44.9832 62.4443 42.7081 62.8465C39.4345 63.4355 34.9556 64.3621 29.0289 67.4005" stroke="#0021FF" stroke-width="2" stroke-linecap="round" stroke-linejoin="round"/>
<path d="M29.6134 61.2593C33.807 58.9392 40.882 53.8322 41.7592 52.6183C42.6364 51.4043 42.1942 49.6733 40.1545 49.4003C38.1147 49.1273 27.4452 56.1666 23.651 58.6088C19.8568 61.051 16.4192 66.273 12.8389 76.4943C9.25862 86.7156 5.7568 95.1053 5.2433 98.6321C4.72979 102.159 1.0782 122.537 1.00688 127.91C0.935564 133.283 1.37062 149.128 4.58715 151.944C7.80369 154.76 13.3524 154.171 17.2964 152.475C21.2404 150.78 27.0102 147.476 27.0102 147.476" stroke="#0021FF" stroke-width="2" stroke-linecap="round" stroke-linejoin="round"/>
<path d="M34.2708 36.1191H31.0542C30.1443 36.1191 29.4067 36.862 29.4067 37.7784V37.7856C29.4067 38.702 30.1443 39.4448 31.0542 39.4448H34.2708C35.1807 39.4448 35.9183 38.702 35.9183 37.7856V37.7784C35.9183 36.862 35.1807 36.1191 34.2708 36.1191Z" stroke="#0021FF" stroke-width="2" stroke-linecap="round" stroke-linejoin="round"/>
</svg>
